<svg version="1.1" xmlns="http://www.w3.org/2000/svg" xmlns:xlink="http://www.w3.org/1999/xlink" width="341.14321" height="115.66301" viewBox="0,0,341.14321,115.66301"><g transform="translate(-74.07414,-122.22405)"><g data-paper-data="{&quot;isPaintingLayer&quot;:true}" fill-rule="nonzero" stroke-linecap="butt" stroke-linejoin="miter" stroke-miterlimit="10" stroke-dasharray="" stroke-dashoffset="0" style="mix-blend-mode: normal"><path d="M133.74434,205.79823c-3.35853,11.26754 -12.48795,18.1162 -27.12827,20.35714c-0.66547,0.10071 -1.32055,0.16366 -1.97562,0.18883c-0.85263,1.51073 -1.96522,2.82004 -3.27535,3.83979c-3.43131,2.65636 -6.6443,3.95308 -9.81568,3.95308c-6.51952,0 -13.53814,-5.89185 -13.53814,-18.8338c0,-0.88127 0.03119,-2.0269 0.10398,-3.61317c0.0312,-0.67982 0.06239,-1.20858 0.07279,-1.59887c-0.17677,-0.98198 -0.27035,-1.97653 -0.27035,-2.98369v-6.09329c0,-0.99455 0.08318,-1.98914 0.24955,-2.9837c0.01039,-0.8435 0.04159,-1.7877 0.09359,-2.82003c-0.24955,-1.10787 -0.4367,-2.39199 -0.4367,-3.82719c0,-0.65464 0.04159,-1.30931 0.11438,-1.95137c0.39512,-3.37396 1.63247,-6.76054 3.72247,-9.46726c-0.71746,-2.42975 -1.09178,-4.998 -1.09178,-7.6292v-6.42061c0,-2.60601 0.42631,-5.85409 2.5163,-13.9365c0.87343,-3.4747 1.15419,-4.55738 1.5389,-5.56454c2.0484,-5.56454 5.13659,-8.3468 7.38255,-9.71904c3.67048,-2.21575 7.61132,-3.3488 11.70812,-3.3488c1.89244,0 3.70167,0.2392 5.42773,0.69241c0.76946,-0.62948 1.59089,-1.15823 2.46432,-1.59887c1.11259,-0.57912 2.29794,-0.98197 3.60808,-1.23376c3.27535,-0.67982 6.73787,0.16366 9.75329,2.37941c3.17138,2.34163 6.81066,7.20116 6.36356,17.19716c-0.07279,1.76252 -0.19757,4.11676 -0.38473,7.18859c-0.01039,0.07554 -0.0104,0.15108 -0.02081,0.2266c-0.16638,2.22833 -0.40552,5.55194 -0.72786,9.94566c0.08318,1.69958 0.05198,3.60057 -0.07279,5.8415c-0.05199,0.85609 -0.16638,1.71216 -0.35353,2.54308c-0.04159,0.18883 -0.08317,0.3651 -0.12478,0.52874c1.40373,2.17798 2.36034,4.35594 3.01542,6.24435c0.61347,1.49815 1.13337,3.2229 1.59088,5.32533c0.17677,0.79315 0.29114,1.59886 0.34313,2.41717c0.4679,7.06268 0.22875,11.22978 -0.85263,14.75483z" fill="#ffffff" stroke="#ffffff" stroke-width="7.5"/><path d="M182.36961,146.91591c-0.0412,0.21202 -0.07211,0.42404 -0.12361,0.63605c-0.15451,0.78571 -0.47383,2.64397 -0.79314,6.27319c0,0.06235 0,0.11225 -0.0103,0.14966c1.7614,8.58043 -1.20517,13.80601 -3.17258,16.18808c-0.12361,0.16213 -0.25751,0.31179 -0.40172,0.46145c-1.92621,2.12016 -5.29451,4.65188 -10.3212,4.65188c-2.50304,0 11.89719,3.69159 9.85767,2.4569c0.0515,3.40473 -3.26529,7.47047 -3.26529,13.98062c1.85411,0.78571 -9.83707,-1.68366 -8.39499,-0.01247c2.86357,3.3299 4.42926,7.78225 4.42926,12.53391c0,7.05891 -3.358,13.19491 -8.76581,16.00101c-0.13391,0.07483 -0.27811,0.14966 -0.41202,0.21202c-1.81291,0.8356 -3.85243,1.24715 -6.24216,1.24715c-0.86525,0 -1.7923,-0.04988 -2.80176,-0.16213c-0.61804,-0.03742 -1.52449,-0.02495 -2.59575,0.01247c-1.94681,0.2619 -4.68678,0.52381 -8.35379,0.77323c-0.0721,0 -0.14421,0.01247 -0.22661,0.01247c-0.48413,0.02495 -0.94766,0.03741 -1.40088,0.03741c-6.56148,0 -11.35126,-2.51925 -14.24573,-7.47046c-0.06181,-0.09977 -0.11331,-0.19955 -0.16481,-0.29932c-2.94597,-5.32536 -3.02838,-12.06 -0.22662,-17.55996c0.0206,-0.06235 0.0515,-0.11225 0.08241,-0.1746c1.782,-3.39227 4.38805,-5.81174 7.76665,-7.2335c0.0412,-2.40701 -7.95206,4.86391 -8.01387,1.28457c-1.679,0.84806 -0.26782,-8.94211 -2.44124,-8.94211c-5.73743,0 -5.84044,-4.12808 -7.48854,-10.40127c-0.33992,-1.2721 -0.65924,-3.13036 -1.40088,-7.3208c-0.0309,-0.14966 -0.0515,-0.29932 -0.0721,-0.44898l-1.52449,-10.31398c-0.0515,-0.22448 -0.12361,-0.48639 -0.20601,-0.7857c-0.79315,-2.73127 -1.16397,-5.05099 -1.16397,-7.29587c0,-2.78116 0.66954,-6.98407 3.84213,-11.17451c1.59659,-2.12017 4.50136,-4.8639 9.17783,-5.74938c0.57684,-0.11225 1.16397,-0.17461 1.7511,-0.17461h11.39246c0.25751,0 0.51503,0.01247 0.77254,0.03741c4.34685,0.18707 8.24048,0.1746 11.57787,-0.01247c4.66617,-0.24943 9.32204,-0.73582 13.88521,-1.4467c0.51503,-0.19955 1.07126,-0.3991 1.6687,-0.5737c0.56653,-0.1746 1.14336,-0.28684 1.7202,-0.36168c4.38805,-0.4864 8.47739,1.04761 11.66028,4.3401c3.94513,4.10314 5.68593,10.31397 4.64557,16.62458z" fill="#ffffff" stroke="#ffffff" stroke-width="7.5"/><g fill="#ffffff" stroke="#ffffff" stroke-width="7.5"><path d="M221.05843,204.1613c0.15928,1.11881 -0.36604,2.73406 -1.57989,4.84277c-1.21189,2.11019 -2.4377,3.57534 -3.67753,4.39673c-1.23983,0.82138 -3.10121,1.24696 -5.58189,1.2745c-1.99729,0.00664 -3.766,-1.24807 -5.30531,-3.76155c-1.54136,-2.5137 -2.3263,-5.20439 -2.35902,-8.07126c-0.07693,-8.08374 -0.49718,-13.9293 -1.26182,-17.53553c-0.05734,-0.8863 -0.29239,-2.21356 -0.70809,-3.98457c-0.41484,-1.76842 -1.54263,-3.30387 -3.38361,-4.60263c-1.39382,-0.80895 -2.81264,-1.65814 -4.25951,-2.54789c-0.23484,-0.09774 -0.53445,-0.1298 -0.89986,-0.09628c-0.86156,0.20078 -2.64634,0.59702 -5.35024,1.18912l-0.15152,2.0759l-0.62213,8.52352c-0.0107,0.14659 -0.01606,0.84339 -0.01608,2.09039c-0.00021,1.24949 -0.01889,2.12891 -0.05598,2.63701c0.02955,1.25268 -0.05789,4.54739 -0.26633,9.88246c0.40361,0.26479 0.85507,0.3131 1.35337,0.1448c1.68274,-0.6275 3.13964,-0.6544 4.37183,-0.08185c0.87627,0.46186 1.26287,1.38464 1.16196,2.76734c-0.14899,2.04112 -1.12557,3.1661 -2.92977,3.37495c-1.80438,0.21133 -4.44772,0.49816 -7.92995,0.85924c-2.8161,0.3585 -4.88601,0.46755 -6.2086,0.32602c-2.04597,-0.21892 -3.41838,-0.95297 -4.11415,-2.2018c-0.00503,-2.42444 1.12311,-3.76984 3.38701,-4.04343c1.82183,-0.02542 3.64526,-0.08698 5.47038,-0.18592c0.26658,-0.33707 0.41797,-0.72527 0.44989,-1.16255c0.06076,-1.68246 0.16906,-7.72814 0.32286,-18.13723c0.00013,-2.49526 0.07797,-4.3975 0.23418,-5.70167c-1.07826,-0.188 -1.79262,-0.3746 -2.14207,-0.55973c-0.87637,-0.46061 -1.3984,-1.21385 -1.56303,-2.25937l0.02403,-0.32921c0.12429,-0.05931 0.24124,-0.4149 0.35058,-1.06301c0.95834,-1.51256 2.08702,-2.01529 3.38519,-1.51081c0.15094,-0.42456 0.20718,-1.59168 0.16385,-3.50564c-0.03566,-6.97755 0.03604,-12.55012 0.22015,-16.7159c-0.22,-0.31526 -0.72657,-0.44459 -1.51903,-0.38289c-1.22488,0.16316 -1.86754,0.24089 -1.92706,0.23452c-3.24953,-0.34769 -4.74527,-1.46053 -4.48582,-3.34336c0.24764,-1.7351 1.55795,-2.65785 3.93129,-2.77325c2.14257,-0.28281 6.62346,-0.61217 13.44346,-0.98421c-0.30701,0.04102 1.82137,0.37768 6.38381,1.0136c5.25618,1.077 8.88001,2.53021 10.86963,4.35695c2.15304,2.06708 3.51163,4.63387 4.07541,7.70529c0.16989,0.97347 0.1278,2.4 -0.13053,4.28169c-0.19882,1.88806 -0.53824,3.20892 -1.01638,3.96531c-1.60852,2.91161 -4.60497,5.34418 -8.9925,7.29861c-0.01596,0.21865 0.0031,0.36843 0.05838,0.44696c1.40845,1.47283 2.34638,2.74758 2.81378,3.82425c1.33936,3.22703 2.0697,7.78489 2.18516,13.6692c0.20216,8.02577 0.46903,13.08243 0.80238,15.17391c0.02861,0.44377 0.3988,1.18076 1.11156,2.21106c0.71259,1.03278 1.30745,1.60977 1.78454,1.73218c1.85262,0.34598 3.07215,-0.55145 3.65346,-2.6928c-0.00308,-0.80788 0.34751,-1.87089 1.05091,-3.19161c0.91149,-0.85651 1.96808,-1.22173 3.17269,-1.09284c1.20544,0.13148 1.93934,0.87233 2.20596,2.22048zM205.80754,163.8747c0.58853,-0.59684 0.93385,-1.58778 1.03495,-2.97297c0.27112,-3.71452 -0.61834,-6.48901 -2.66627,-8.3245c-2.04913,-1.8331 -6.69014,-3.06461 -13.92114,-3.69185c-0.54073,-0.05785 -1.3746,0.14589 -2.50065,0.6126c0.10182,1.11267 0.03535,2.02328 -0.1994,2.73184c-0.14033,1.08676 -0.21478,2.1067 -0.22333,3.05982c-0.11379,1.96977 -0.2305,4.41876 -0.35284,7.34163c-0.01413,4.33047 -0.03886,6.75173 -0.07595,7.25983c1.02722,0.03729 2.5591,-0.16688 4.59232,-0.60915c0.32618,-0.33194 0.77718,-0.68808 1.35087,-1.06742c0.43027,-0.10045 1.51914,-0.05781 3.26446,0.12894c3.30998,0.35541 6.54256,-1.1329 9.69697,-4.46879z"/><path d="M208.71373,228.3152c-3.53888,-0.37867 -8.64954,-2.2877 -12.90168,-9.22938c-0.07018,-0.11518 -0.13933,-0.23025 -0.20943,-0.34669c-1.51322,0.84095 -3.18811,1.38915 -4.98401,1.59765c-1.80325,0.21019 -4.45295,0.49885 -7.9362,0.85983c-3.56942,0.45066 -6.20373,0.55692 -8.28048,0.3347c-6.98543,-0.74744 -10.65938,-4.87156 -12.51252,-8.19989c-1.2562,-2.25534 -1.92972,-4.91407 -1.93491,-7.634c-0.01511,-7.76913 -6.38332,-6.3897 -0.60412,-8.93643c0.02312,-1.43609 -2.68214,-4.6077 -2.65435,-6.44769c-1.63268,-2.21173 1.52946,-6.98537 1.04883,-10.03413c-0.19656,-1.24551 8.32173,-6.60915 8.41394,-7.87258l0.02403,-0.32921c0.11299,-1.54792 0.43966,-3.03417 0.94729,-4.40715c0.39631,-1.36362 0.96876,-2.64702 1.70031,-3.80073c0.3798,-0.59914 0.78076,-1.16222 1.20091,-1.69069c-0.00023,-0.1102 -0.00037,-0.22164 0.00145,-0.33163c-1.76983,-1.02697 -3.55973,-2.55815 -5.03173,-4.86035c-2.23191,-3.49406 -3.12746,-7.84297 -2.51942,-12.24887c1.39911,-9.80383 8.41464,-13.7332 14.19873,-14.19354c2.49177,-0.3068 7.02862,-0.63767 13.84134,-1.00923c1.06824,-0.05722 2.10999,0.06424 3.10378,0.34713c0.63464,0.10297 2.04282,0.31875 5.08417,0.74183c0.19963,0.02763 0.39974,0.0628 0.59744,0.10273c7.24705,1.48408 12.27588,3.69236 15.82382,6.95038c0.06596,0.05963 0.13081,0.12041 0.19557,0.18243c4.17068,4.00575 6.97029,9.35594 8.09556,15.4735c0.00802,0.04593 0.01613,0.09062 0.02415,0.13655c0.46707,2.66794 0.46602,5.5725 -0.00426,9.12548c-0.44852,4.01981 -1.41998,7.25624 -2.96422,9.86799c-0.90065,1.58634 -1.95318,3.05752 -3.16325,4.42045c0.70329,3.34177 1.11918,7.09349 1.25991,11.31406c0.4235,0.0065 0.84973,0.03207 1.27863,0.07797c6.03324,0.64556 10.83265,5.62879 12.2267,12.6966c0.05486,0.28257 0.10357,0.56447 0.1437,0.85047c1.03349,7.23331 -2.33829,13.09378 -3.44572,15.01985c-2.24471,3.90649 -4.71158,6.72 -7.53676,8.5912c-2.92845,1.94028 -6.49942,2.90787 -10.9145,2.95879c-0.58872,0.00462 -1.10478,-0.02306 -1.61267,-0.0774z"/></g><path d="M171.40006,145.08835c-0.42232,2.04908 -0.7849,4.82649 -1.08671,8.33723c-0.12258,1.756 -0.06284,3.1815 0.18129,4.279c0.42027,1.82958 0.39245,3.03682 -0.09065,3.62049c-0.66542,0.73084 -1.57084,1.09625 -2.71833,1.09625c-1.32981,0 -2.20742,-0.47765 -2.62769,-1.43547c-0.06284,-2.94579 -0.03193,-5.70949 0.09065,-8.2886c0.11846,-3.16778 0.18129,-4.82524 0.18129,-4.97241c-0.06284,0 -0.15245,-0.07358 -0.27194,-0.22199c-5.61898,0.29558 -10.90421,0.73458 -15.85674,1.32074c-0.12155,0.73458 -0.12155,1.90565 0,3.51698c0.24,2.27232 0.36258,3.59181 0.36258,3.95598c-0.24104,2.27232 -0.36258,5.64212 -0.36258,10.11318c0.24,1.90565 0.36258,10.07702 0.36258,24.51285v8.02545c0,1.24591 0.14935,2.12515 0.4491,2.63773h5.56335c1.01667,-0.14592 1.83866,0.14716 2.46802,0.878c0.62731,0.73208 0.94148,1.60883 0.94148,2.6315c0,1.60759 -0.63349,2.7425 -1.90252,3.40224c-0.78594,0.36417 -2.17445,0.43901 -4.16762,0.2195c-0.96619,-0.07483 -2.38665,-0.07483 -4.2593,0c-1.69136,0.25442 -4.40865,0.51009 -8.15395,0.767c-3.2622,0.14592 -5.25537,-0.40283 -5.98053,-1.645c-0.48413,-0.87675 -0.48413,-1.79217 0,-2.7425c0.84465,-1.60759 3.05001,-2.41325 6.61505,-2.41325c1.268,0 2.05188,-0.12721 2.35472,-0.38288c0.30181,-0.25566 0.45323,-0.74954 0.45323,-1.48038c0,-0.656 0,-1.27583 0,-1.86075c0,-1.09375 0,-2.7001 0,-4.81652c0.18129,-3.72027 0.18129,-9.26886 0,-16.6408c-0.24207,-10.58211 -0.12154,-19.8859 0.36258,-27.91509c-0.06077,-0.07234 -0.15142,-0.18209 -0.274,-0.32925c-2.18682,0.14717 -5.70962,0.07358 -10.56841,-0.22074c-0.54696,0 -2.40107,0.14841 -5.5582,0.44024c0.78491,6.65607 1.268,11.6659 1.44929,15.02948c0,0.439 -0.06077,1.42675 -0.18129,2.962c-0.06077,1.09625 -0.8158,1.645 -2.2651,1.645c-0.78594,0 -1.23813,-0.32676 -1.35865,-0.97902c-0.06077,-0.14342 -0.42336,-2.10395 -1.08775,-5.87535c-0.36258,-2.46562 -0.87658,-5.94769 -1.53994,-10.44493c0,-0.28684 -0.21219,-1.19353 -0.63349,-2.7188c-0.36052,-1.23344 -0.54078,-2.17628 -0.54078,-2.82855c0,-0.50635 0.28532,-1.14364 0.86113,-1.90316c0.57374,-0.76076 1.43488,-1.25214 2.58236,-1.47039c0.18129,0 0.46662,0 0.86113,0c0.39142,0 0.70868,0 0.95075,0c7.18879,0 10.32944,0 9.42299,0c4.89279,0.22074 9.2417,0.22074 13.04674,0c5.43563,-0.29058 10.81047,-0.87676 16.12765,-1.75475c0.36258,-0.2195 0.90542,-0.439 1.62956,-0.65725c1.32981,-0.14592 2.41652,0.2195 3.26323,1.0975c0.84465,0.87551 1.14646,2.04658 0.90542,3.5095z" fill="#ffffff" stroke="#ffffff" stroke-width="7.5"/><path d="M122.40688,193.59061c0.30466,4.57878 0.24227,7.52973 -0.183,8.85918c-1.76973,6.05426 -7.71528,9.85503 -17.83458,11.40604c-3.41573,0.51743 -6.82938,-1.43896 -10.2451,-5.86919c0,0.66473 0.12166,2.65762 0.36705,5.98123c0.183,2.43606 0.15181,4.42897 -0.0915,5.97871c-1.52538,1.18088 -2.74402,1.77259 -3.65904,1.77259c-1.40373,0 -2.1035,-1.66054 -2.1035,-4.98416c0,-0.59044 0.03015,-1.53088 0.0915,-2.82255c0.06031,-1.29041 0.0915,-2.19561 0.0915,-2.71303c0,-1.25517 -0.0915,-2.14021 -0.27451,-2.65762v-6.09076c0,-0.1473 0.03015,-0.31349 0.0915,-0.49854c0.06031,-0.18381 0.12166,-0.34999 0.183,-0.49854c-0.06135,-1.03233 -0.0312,-2.61986 0.0915,-4.76131c0.12166,-1.32944 0.12166,-2.17671 0,-2.54684c-0.3057,-0.73648 -0.45647,-1.17962 -0.45647,-1.32818c0.24227,-2.06718 1.49418,-3.10077 3.7495,-3.10077c1.46299,0 2.34682,0.62822 2.65252,1.88212c0,1.18088 0.12166,2.91698 0.36601,5.20447c0.36705,2.65763 1.52435,5.31651 3.47604,7.97288c2.13366,3.02776 4.17581,4.43022 6.12855,4.20865c2.19501,-0.29334 4.39002,-0.92155 6.58502,-1.88213c3.04868,-1.32944 4.87767,-2.8792 5.48804,-4.65053c0.42527,-1.32944 0.63947,-2.73065 0.63947,-4.20865c0,-4.50197 -1.37148,-7.86209 -4.11551,-10.07658c-1.22072,-0.95931 -3.47604,-1.73482 -6.76907,-2.32654c-1.89035,-0.29334 -3.04972,-0.44315 -3.47499,-0.44315c-2.92703,0.07428 -5.65649,-1.0701 -8.18632,-3.43313c-2.53086,-2.36178 -3.79526,-5.09494 -3.79526,-8.19572v-6.42187c0,-1.40121 0.67067,-4.68703 2.01304,-9.85502c0.60828,-2.43732 0.94414,-3.72772 1.00653,-3.87628c0.54797,-1.54975 1.24879,-2.58335 2.10247,-3.10077c2.07231,-1.2539 4.26731,-1.88213 6.58502,-1.88213c4.51167,0 7.83487,2.21448 9.96957,6.64344c0.183,0.22157 0.48766,0.55393 0.91502,0.99709c0.06031,-1.03233 0.183,-2.61986 0.36601,-4.76132c-0.06135,-0.95931 -0.1227,-1.88212 -0.183,-2.76841c0,-1.03233 0.42527,-1.73355 1.27998,-2.10369c0.24331,-0.1473 0.57916,-0.25809 1.00652,-0.33237c0.60932,-0.1473 1.26544,0.03778 1.96729,0.55268c0.69978,0.51743 0.98989,2.06845 0.86824,4.65053c-0.06135,1.62403 -0.183,3.91278 -0.36601,6.865c-0.183,2.43732 -0.45647,6.16504 -0.82352,11.18571c0.12166,1.18088 0.12166,2.80618 0,4.8721c-0.3057,1.40247 -1.22072,2.10369 -2.74402,2.10369c-0.79336,0 -1.5545,-0.25808 -2.28651,-0.77425c-0.36601,-1.40121 -0.54797,-1.99417 -0.54797,-1.77259c0.12061,-1.99291 -0.21421,-4.65053 -1.00653,-7.97288c-0.67171,-1.69706 -1.60025,-4.11424 -2.78978,-7.25278c-1.18952,-3.13728 -2.75963,-4.81798 -4.71028,-5.03955c-2.43936,-0.22157 -4.024,0.77551 -4.75602,2.98999c-0.24331,0.96058 -0.58021,2.36429 -1.00548,4.20865c-0.73201,2.73191 -1.18952,5.35304 -1.37254,7.8621c-0.06135,0.81328 -0.1227,1.14563 -0.183,0.99708c0.183,1.478 0.39616,2.95348 0.64051,4.43023c0.30466,1.84562 1.05227,3.24933 2.24076,4.20737c1.18952,0.96058 3.45941,1.54976 6.81379,1.77133c8.23104,0.59297 13.32187,4.06261 15.27356,10.4102c0.30362,0.5917 0.60828,1.58752 0.91398,2.98872z" fill="#ffffff" stroke="#ffffff" stroke-width="7.5"/><path d="M280.68633,207.75792c0.87555,4.75167 0.0103,8.36841 -1.08156,10.78789c-2.79146,6.4478 -7.92116,10.28904 -13.7925,10.28904c-1.12276,0 -2.29703,-0.13719 -3.56401,-0.43651h-4.60437c-1.20517,0 -3.47131,-0.0873 -9.11603,-0.84807c-3.3477,-0.46145 -6.18035,-0.68594 -8.40529,-0.68594h-5.60353c-0.14421,0.01247 -0.64894,0.04988 -1.85411,0.19955c-1.88501,0.23696 -3.31679,0.34921 -4.52196,0.34921c-3.5022,0 -6.63359,-0.87301 -9.30144,-2.58161c-0.17511,-0.11225 -0.33992,-0.23696 -0.51503,-0.34921c-1.79231,-1.30952 -5.96405,-5.2131 -5.96405,-13.41939c0,-4.4274 1.35968,-8.51808 3.82153,-11.52372c1.19487,-1.47164 2.57515,-2.66891 4.08934,-3.57934c-3.4095,-4.5147 -4.43956,-10.91261 -2.59575,-16.96131c0.72104,-2.30724 -3.11078,-2.4569 -1.7511,-4.1655c-6.18036,-2.51925 -4.26444,-10.71307 -4.46016,-16.82414c-0.52533,-4.70178 0.98886,-9.47838 4.13054,-12.53391c3.11078,-3.03059 6.8602,-4.80155 10.83623,-5.15075c0.25751,-0.01247 0.52533,-0.02495 0.79315,-0.02495h3.16228c6.8087,-0.14966 18.36597,-2.18251 34.3422,-6.0487c2.06012,-0.56122 4.19235,-0.46146 6.45848,0.32425c1.05066,0.36167 3.4301,1.19728 5.56232,3.729c0.45323,0.53628 0.85495,1.10996 1.22577,1.72107c1.42148,2.3696 2.40004,5.03851 2.91507,7.93191c0.21631,1.25963 0.28842,2.53172 0.21631,3.80382c-0.12361,2.35712 -0.0515,4.96368 0.21631,7.74484c0.33992,3.36732 -0.37082,6.77205 -1.97771,9.54074c-2.46184,4.21538 -6.22156,6.8843 -10.54782,7.53282c0.0103,0.22448 0.0206,0.46146 0.0206,0.68594v1.06008c3.18288,0.36167 6.10826,1.99545 8.34349,4.68931c3.67732,4.47729 3.70821,10.01466 3.5434,12.87065c0.18541,1.49659 0.24722,2.46937 0.24722,3.42968c0,1.15985 -0.09271,2.43195 -0.29872,4.15303c-0.0206,0.18707 -0.04121,0.33673 -0.06181,0.48639v3.3299c0.0309,0.16213 0.06181,0.31179 0.09271,0.47392z" fill="#ffffff" stroke="#ffffff" stroke-width="7.5"/><path d="M221.05843,204.1613c0.15928,1.11881 -0.36604,2.73406 -1.57989,4.84277c-1.21189,2.11019 -2.4377,3.57534 -3.67753,4.39673c-1.23983,0.82138 -3.10121,1.24696 -5.58189,1.2745c-1.99729,0.00664 -3.766,-1.24807 -5.30531,-3.76155c-1.54136,-2.5137 -2.3263,-5.20439 -2.35902,-8.07126c-0.07693,-8.08374 -0.49718,-13.9293 -1.26182,-17.53553c-0.05734,-0.8863 -0.29239,-2.21356 -0.70809,-3.98457c-0.41484,-1.76842 -1.54263,-3.30387 -3.38361,-4.60263c-1.39382,-0.80895 -2.81264,-1.65814 -4.25951,-2.54789c-0.23484,-0.09774 -0.53445,-0.1298 -0.89986,-0.09628c-0.86156,0.20078 -2.64634,0.59702 -5.35024,1.18912l-0.15152,2.0759l-0.62213,8.52352c-0.0107,0.14659 -0.01606,0.84339 -0.01608,2.09039c-0.00021,1.24949 -0.01889,2.12891 -0.05598,2.63701c0.02955,1.25268 -0.05789,4.54739 -0.26633,9.88246c0.40361,0.26479 0.85507,0.3131 1.35337,0.1448c1.68274,-0.6275 3.13964,-0.6544 4.37183,-0.08185c0.87627,0.46186 1.26287,1.38464 1.16196,2.76734c-0.14899,2.04112 -1.12557,3.1661 -2.92977,3.37495c-1.80438,0.21133 -4.44772,0.49816 -7.92995,0.85924c-2.8161,0.3585 -4.88601,0.46755 -6.2086,0.32602c-2.04597,-0.21892 -3.41838,-0.95297 -4.11415,-2.2018c-0.00503,-2.42444 1.12311,-3.76984 3.38701,-4.04343c1.82183,-0.02542 3.64526,-0.08698 5.47038,-0.18592c0.26658,-0.33707 0.41797,-0.72527 0.44989,-1.16255c0.06076,-1.68246 0.16906,-7.72814 0.32286,-18.13723c0.00013,-2.49526 0.07797,-4.3975 0.23418,-5.70167c-1.07826,-0.188 -1.79262,-0.3746 -2.14207,-0.55973c-0.87637,-0.46061 -1.3984,-1.21385 -1.56303,-2.25937l0.02403,-0.32921c0.12429,-0.05931 0.24124,-0.4149 0.35058,-1.06301c0.95834,-1.51256 2.08702,-2.01529 3.38519,-1.51081c0.15094,-0.42456 0.20718,-1.59168 0.16385,-3.50564c-0.03566,-6.97755 0.03604,-12.55012 0.22015,-16.7159c-0.22,-0.31526 -0.72657,-0.44459 -1.51903,-0.38289c-1.22488,0.16316 -1.86754,0.24089 -1.92706,0.23452c-3.24953,-0.34769 -4.74527,-1.46053 -4.48582,-3.34336c0.24764,-1.7351 1.55795,-2.65785 3.93129,-2.77325c2.14257,-0.28281 6.62346,-0.61217 13.44346,-0.98421c-0.30701,0.04102 1.82137,0.37768 6.38381,1.0136c5.25618,1.077 8.88001,2.53021 10.86963,4.35695c2.15304,2.06708 3.51163,4.63387 4.07541,7.70529c0.16989,0.97347 0.1278,2.4 -0.13053,4.28169c-0.19882,1.88806 -0.53824,3.20892 -1.01638,3.96531c-1.60852,2.91161 -4.60497,5.34418 -8.9925,7.29861c-0.01596,0.21865 0.0031,0.36843 0.05838,0.44696c1.40845,1.47283 2.34638,2.74758 2.81378,3.82425c1.33936,3.22703 2.0697,7.78489 2.18516,13.6692c0.20216,8.02577 0.46903,13.08243 0.80238,15.17391c0.02861,0.44377 0.3988,1.18076 1.11156,2.21106c0.71259,1.03278 1.30745,1.60977 1.78454,1.73218c1.85262,0.34598 3.07215,-0.55145 3.65346,-2.6928c-0.00308,-0.80788 0.34751,-1.87089 1.05091,-3.19161c0.91149,-0.85651 1.96808,-1.22173 3.17269,-1.09284c1.20544,0.13148 1.93934,0.87233 2.20596,2.22048zM205.80754,163.8747c0.58853,-0.59684 0.93385,-1.58778 1.03495,-2.97297c0.27112,-3.71452 -0.61834,-6.48901 -2.66627,-8.3245c-2.04913,-1.8331 -6.69014,-3.06461 -13.92114,-3.69185c-0.54073,-0.05785 -1.3746,0.14589 -2.50065,0.6126c0.10182,1.11267 0.03535,2.02328 -0.1994,2.73184c-0.14033,1.08676 -0.21478,2.1067 -0.22333,3.05982c-0.11379,1.96977 -0.2305,4.41876 -0.35284,7.34163c-0.01413,4.33047 -0.03886,6.75173 -0.07595,7.25983c1.02722,0.03729 2.5591,-0.16688 4.59232,-0.60915c0.32618,-0.33194 0.77718,-0.68808 1.35087,-1.06742c0.43027,-0.10045 1.51914,-0.05781 3.26446,0.12894c3.30998,0.35541 6.54256,-1.1329 9.69697,-4.46879z" fill="#ffffff" stroke="#ffffff" stroke-width="7.5"/><path d="M331.6743,207.75792c0.87555,4.75167 0.0103,8.36841 -1.08156,10.78789c-2.79146,6.4478 -7.92116,10.28904 -13.7925,10.28904c-1.12276,0 -2.29703,-0.13719 -3.56401,-0.43651h-4.60437c-1.20517,0 -3.47131,-0.0873 -9.11603,-0.84807c-3.3477,-0.46145 -6.18035,-0.68594 -8.40529,-0.68594h-5.60353c-0.14421,0.01247 -0.64894,0.04988 -1.85411,0.19955c-1.88501,0.23696 -3.31679,0.34921 -4.52196,0.34921c-3.5022,0 -6.63359,-0.87301 -9.30144,-2.58161c-0.17511,-0.11225 -0.33992,-0.23696 -0.51503,-0.34921c-1.79231,-1.30952 -5.96405,-5.2131 -5.96405,-13.41939c0,-4.4274 1.35968,-8.51808 3.82153,-11.52372c1.19487,-1.47164 2.57515,-2.66891 4.08934,-3.57934c-3.4095,-4.5147 -4.43956,-10.91261 -2.59575,-16.96131c0.72104,-2.30724 -3.11078,-2.4569 -1.7511,-4.1655c-6.18036,-2.51925 -4.26445,-10.71307 -4.46016,-16.82414c-0.52533,-4.70178 0.98886,-9.47838 4.13054,-12.53391c3.11078,-3.03059 6.8602,-4.80155 10.83623,-5.15075c0.25751,-0.01247 0.52533,-0.02495 0.79315,-0.02495h3.16228c6.8087,-0.14966 18.36597,-2.18251 34.3422,-6.0487c2.06012,-0.56122 4.19235,-0.46146 6.45848,0.32425c1.05066,0.36167 3.4301,1.19728 5.56232,3.729c0.45323,0.53628 0.85495,1.10996 1.22577,1.72107c1.42148,2.3696 2.40004,5.03851 2.91507,7.93191c0.21631,1.25963 0.28842,2.53172 0.21631,3.80382c-0.12361,2.35712 -0.0515,4.96368 0.21631,7.74484c0.33992,3.36732 -0.37082,6.77205 -1.97771,9.54074c-2.46184,4.21538 -6.22156,6.8843 -10.54782,7.53282c0.0103,0.22448 0.0206,0.46146 0.0206,0.68594v1.06008c3.18288,0.36167 6.10825,1.99545 8.34348,4.68931c3.67732,4.47729 3.70822,10.01466 3.54341,12.87065c0.18541,1.49659 0.24722,2.46937 0.24722,3.42968c0,1.15985 -0.09271,2.43195 -0.29872,4.15303c-0.0206,0.18707 -0.04121,0.33673 -0.06181,0.48639v3.3299c0.0309,0.16213 0.06181,0.31179 0.09271,0.47392z" fill="#ffffff" stroke="#ffffff" stroke-width="7.5"/><path d="M270.0798,161.14423c-0.72413,1.24466 -1.84278,1.86575 -3.35182,1.86575c-0.78594,0 -1.48122,-0.18209 -2.08381,-0.54875c-0.06077,-1.97424 -0.21219,-4.89882 -0.4522,-8.77623c-5.13485,1.17108 -13.3197,2.88966 -24.55354,5.15698c-0.54387,0.07358 -0.9971,0.25692 -1.35968,0.54751c0.30181,6.72965 0.45323,13.31214 0.45323,19.74622c0.61186,0.14717 2.54116,-0.18208 5.78688,-0.98774c1.59247,-0.29058 4.04402,-0.9865 7.35051,-2.084c0.05974,-1.16983 -0.06077,-3.12662 -0.36258,-5.86911c-0.30284,-2.74249 -0.42335,-4.77161 -0.36258,-6.08861c0,-1.38808 0.78388,-2.084 2.35575,-2.084c1.81188,0 2.77704,0.91417 2.89859,2.7425c0.24,2.77991 0.60258,6.9479 1.08774,12.50523v17.00372c0.18129,0.29308 0.30077,0.51259 0.36258,0.65725c-0.18129,0.87799 -0.69529,1.62878 -1.53994,2.24986c-0.84671,0.62233 -1.69239,0.93163 -2.53704,0.93163c-1.08774,0 -1.8129,-0.58368 -2.17445,-1.75475c0.12052,-0.72958 0.21116,-1.8645 0.27193,-3.40099v-10.09198c-3.83285,0.14717 -8.15087,1.09625 -12.95609,2.851c0,1.317 -0.0309,4.68183 -0.09065,10.09323c-0.06181,4.46108 -0.06181,7.4979 0,9.10548c0,0.36666 0.24,1.02516 0.72516,1.97425c1.268,0.07483 3.23027,0.2195 5.88885,0.44025c3.08091,0.36666 6.16079,0.73083 9.2417,1.09624c3.68349,0.51259 6.76441,0.69716 9.24273,0.54875c0.05974,-0.95033 0.21013,-2.45066 0.45219,-4.49724v-6.47274c-0.36258,-0.72958 -0.54387,-1.42674 -0.54387,-2.08399c0,-1.0975 0.377,-2.02912 1.13307,-2.79737c0.754,-0.767 1.58629,-1.15237 2.49172,-1.15237c0.72516,0 1.29891,0.25816 1.72226,0.76825c0.24,0.29308 0.30078,1.24465 0.18129,2.85224c-0.06181,0.36666 -0.03091,1.00646 0.09064,1.91938c0.12052,0.91541 0.18129,1.51904 0.18129,1.80962c0,0.44025 -0.06077,1.15238 -0.18129,2.14012c-0.12155,0.9865 -0.18129,1.51904 -0.18129,1.59013v6.58124c0,0.07483 0.11949,0.439 0.36258,1.0975c0.12052,0.65725 0.12052,1.09625 0,1.31699c-0.84774,2.04908 -2.11987,3.07175 -3.81225,3.07175c-0.42438,0 -0.93838,-0.07234 -1.54406,-0.2195c-0.60671,-0.14592 -0.96825,-0.2195 -1.0898,-0.2195h-5.53761c-1.45238,0 -4.06976,-0.25566 -7.85317,-0.76824c-3.78238,-0.51009 -7.00647,-0.76701 -9.66814,-0.76701h-5.71889c-0.48516,0 -1.45239,0.0923 -2.90477,0.27438c-1.45238,0.18209 -2.57309,0.27437 -3.36005,0.27437c-1.63368,0 -2.96657,-0.32925 -3.99354,-0.98775c-0.30284,-0.2195 -0.45426,-0.767 -0.45426,-1.64499c0,-0.80442 0.18026,-1.42675 0.53872,-1.86451c0.7777,-0.95033 1.85514,-1.49783 3.23233,-1.64499c0.89718,0 1.82423,0 2.78322,0c0.65718,0.14717 1.55436,0.07358 2.69258,-0.2195c0.35949,-0.22074 0.56963,-0.73083 0.62834,-1.53525c0.05974,-0.51134 0.05974,-1.27833 0,-2.30474c-0.05974,-1.16983 -0.08962,-1.82708 -0.08962,-1.97424c0,-7.6064 -0.02884,-11.95773 -0.08962,-13.05523c-1.06817,-0.14467 -2.55352,-0.61983 -4.45295,-1.42674c-0.83744,-0.80442 -1.04654,-1.90067 -0.62215,-3.29125c0.36258,-1.16983 1.17839,-2.01041 2.44639,-2.523c0.90542,-0.36417 1.81188,-0.69467 2.71833,-0.9865c0.18129,-0.80442 0.21013,-1.79216 0.09065,-2.96199c-0.12155,-1.02266 -0.21219,-2.01042 -0.27194,-2.962c-0.12155,-3.14408 -0.33271,-7.97057 -0.63452,-14.48073c-0.24207,0 -1.05684,0.09229 -2.44639,0.27562c-1.39058,0.18209 -2.4773,0.27438 -3.26117,0.27438c-2.7791,0 -4.16865,-1.00646 -4.16865,-3.02062c0,-0.2856 0.02987,-0.60986 0.09065,-0.97028c-0.06077,-0.14342 -0.11949,-0.21576 -0.18129,-0.21576c1.32775,-1.29206 2.83885,-2.01166 4.53021,-2.15633c1.08774,0 2.17342,0 3.26117,0c7.55034,-0.14592 19.7823,-2.26609 36.69486,-6.36299c0.18129,-0.07358 0.4831,-0.03616 0.90646,0.10975c0.42129,0.14717 0.66439,0.25691 0.72413,0.32925c0.4831,0.80567 0.8158,1.71858 0.9971,2.74249c-0.18232,3.21891 -0.09168,6.65357 0.26988,10.31024z" fill="#ffffff" stroke="#ffffff" stroke-width="7.5"/><path d="M364.64755,190.32891c-0.72104,9.41603 -3.05928,16.56224 -7.12802,21.76287c-2.36914,3.03059 -5.88164,5.42512 -11.73238,7.96932c-0.11331,0.04988 -0.23692,0.09978 -0.36052,0.14966c-2.80176,1.08503 -5.86104,1.64624 -9.08513,1.64624c-4.91339,0 -9.47656,-1.17233 -13.56589,-3.47957c-6.04645,-3.4172 -9.05422,-8.19381 -10.54781,-12.22213c-0.21631,-0.43651 -0.44292,-0.88547 -0.65924,-1.37186c-0.61804,-1.3594 -1.05067,-2.83105 -1.25668,-4.36505c-0.29872,-2.14511 -0.77254,-5.37525 -1.42148,-9.66546c-0.12361,-0.82313 -0.18541,-1.64624 -0.18541,-2.48184v-10.85025c0,-1.34693 0.09271,-3.31743 0.76225,-8.65526c0.64894,-5.22558 0.92705,-6.84688 1.44208,-8.44324c1.34938,-4.35257 5.38722,-17.14839 15.17278,-19.68012c3.21379,-0.82313 6.8293,-0.93537 10.2491,-0.48639c2.42064,-4.70178 6.74689,-7.50788 11.66028,-7.50788c8.5289,0 13.24658,6.80947 14.13243,13.54412c0.09271,0.71088 0.13391,1.43423 0.13391,2.15758v17.32299c0,0.01247 0,0.02494 0,0.02494c0,0.01247 0,0.01247 0,0.02494c0,0 0,0 0,0.01247c0,1.13491 -0.12361,2.21993 -0.32962,3.28001c1.98801,2.73127 3.09018,6.0986 3.14168,9.70288c0.06181,3.61675 -0.08241,7.53282 -0.42232,11.61102z" fill="#ffffff" stroke="#ffffff" stroke-width="7.5"/><path d="M321.06777,161.14423c-0.72413,1.24466 -1.84278,1.86575 -3.35182,1.86575c-0.78594,0 -1.48122,-0.18209 -2.08381,-0.54875c-0.06077,-1.97424 -0.21219,-4.89882 -0.4522,-8.77623c-5.13485,1.17108 -13.3197,2.88966 -24.55354,5.15698c-0.54387,0.07358 -0.9971,0.25692 -1.35968,0.54751c0.30181,6.72965 0.45323,13.31214 0.45323,19.74622c0.61186,0.14717 2.54116,-0.18208 5.78688,-0.98774c1.59247,-0.29058 4.04402,-0.9865 7.35051,-2.084c0.05974,-1.16983 -0.06077,-3.12662 -0.36258,-5.86911c-0.30284,-2.74249 -0.42336,-4.77161 -0.36258,-6.08861c0,-1.38808 0.78388,-2.084 2.35575,-2.084c1.81188,0 2.77704,0.91417 2.89859,2.7425c0.24,2.77991 0.60258,6.9479 1.08774,12.50523v17.00372c0.18129,0.29308 0.30077,0.51259 0.36258,0.65725c-0.18129,0.87799 -0.69529,1.62878 -1.53994,2.24986c-0.84671,0.62233 -1.69239,0.93163 -2.53704,0.93163c-1.08774,0 -1.8129,-0.58368 -2.17445,-1.75475c0.12052,-0.72958 0.21116,-1.8645 0.27193,-3.40099v-10.09198c-3.83285,0.14717 -8.15087,1.09625 -12.95609,2.851c0,1.317 -0.0309,4.68183 -0.09065,10.09323c-0.06181,4.46108 -0.06181,7.4979 0,9.10548c0,0.36666 0.24,1.02516 0.72516,1.97425c1.268,0.07483 3.23027,0.2195 5.88885,0.44025c3.08091,0.36666 6.16079,0.73083 9.2417,1.09624c3.68349,0.51259 6.76441,0.69716 9.24273,0.54875c0.05974,-0.95033 0.21013,-2.45066 0.45219,-4.49724v-6.47274c-0.36258,-0.72958 -0.54387,-1.42674 -0.54387,-2.08399c0,-1.0975 0.377,-2.02912 1.13307,-2.79737c0.754,-0.767 1.58629,-1.15237 2.49172,-1.15237c0.72516,0 1.29891,0.25816 1.72226,0.76825c0.24,0.29308 0.30077,1.24465 0.18129,2.85224c-0.06181,0.36666 -0.0309,1.00646 0.09065,1.91938c0.12052,0.91541 0.18129,1.51904 0.18129,1.80962c0,0.44025 -0.06077,1.15238 -0.18129,2.14012c-0.12155,0.9865 -0.18129,1.51904 -0.18129,1.59013v6.58124c0,0.07483 0.11949,0.439 0.36258,1.0975c0.12052,0.65725 0.12052,1.09625 0,1.31699c-0.84774,2.04908 -2.11987,3.07175 -3.81225,3.07175c-0.42438,0 -0.93838,-0.07234 -1.54406,-0.2195c-0.60671,-0.14592 -0.96825,-0.2195 -1.0898,-0.2195h-5.53761c-1.45238,0 -4.06976,-0.25566 -7.85317,-0.76824c-3.78238,-0.51009 -7.00647,-0.76701 -9.66815,-0.76701h-5.71889c-0.48516,0 -1.45239,0.0923 -2.90477,0.27438c-1.45238,0.18209 -2.57309,0.27437 -3.36005,0.27437c-1.63368,0 -2.96657,-0.32925 -3.99354,-0.98775c-0.30284,-0.2195 -0.45426,-0.767 -0.45426,-1.64499c0,-0.80442 0.18026,-1.42675 0.53872,-1.86451c0.7777,-0.95033 1.85514,-1.49783 3.23233,-1.64499c0.89718,0 1.82423,0 2.78322,0c0.65718,0.14717 1.55436,0.07358 2.69258,-0.2195c0.35949,-0.22074 0.56963,-0.73083 0.62834,-1.53525c0.05974,-0.51134 0.05974,-1.27833 0,-2.30474c-0.05974,-1.16983 -0.08962,-1.82708 -0.08962,-1.97424c0,-7.6064 -0.02884,-11.95773 -0.08962,-13.05523c-1.06817,-0.14467 -2.55352,-0.61983 -4.45295,-1.42674c-0.83744,-0.80442 -1.04654,-1.90067 -0.62215,-3.29125c0.36258,-1.16983 1.17839,-2.01041 2.44639,-2.523c0.90542,-0.36417 1.81188,-0.69467 2.71833,-0.9865c0.18129,-0.80442 0.21013,-1.79216 0.09065,-2.96199c-0.12155,-1.02266 -0.21219,-2.01042 -0.27194,-2.962c-0.12155,-3.14408 -0.33271,-7.97057 -0.63452,-14.48073c-0.24207,0 -1.05684,0.09229 -2.44639,0.27562c-1.39058,0.18209 -2.47729,0.27438 -3.26117,0.27438c-2.7791,0 -4.16865,-1.00646 -4.16865,-3.02062c0,-0.2856 0.02987,-0.60986 0.09065,-0.97028c-0.06077,-0.14342 -0.11949,-0.21576 -0.18129,-0.21576c1.32775,-1.29206 2.83885,-2.01166 4.53021,-2.15633c1.08774,0 2.17342,0 3.26117,0c7.55034,-0.14592 19.7823,-2.26609 36.69486,-6.36299c0.18129,-0.07358 0.4831,-0.03616 0.90646,0.10975c0.42129,0.14717 0.66439,0.25691 0.72413,0.32925c0.4831,0.80567 0.8158,1.71858 0.9971,2.74249c-0.18232,3.21891 -0.09168,6.65357 0.26988,10.31024z" fill="#ffffff" stroke="#ffffff" stroke-width="7.5"/><path d="M408.57881,217.26463c-1.70219,2.23789 -4.83143,4.8817 -10.12711,4.8817h-1.45287c-0.89407,0.06246 -1.59042,0.09368 -2.175,0.09368c-0.35248,0 -0.72214,0.03122 -1.1004,0.07285c-0.29229,0.12491 -0.87688,0.37472 -1.91711,0.86393c-2.82837,1.37395 -5.02057,1.99848 -7.11821,1.99848c-2.94013,0 -5.70832,-1.26986 -7.99509,-3.66388c-1.34971,-1.40518 -2.38993,-3.0914 -3.08628,-4.95457c-1.0918,-0.10408 -2.47589,-0.26022 -4.24685,-0.44758h-4.47897c-0.20632,0 -0.40405,-0.01041 -0.60178,-0.03123c-2.23519,-0.16655 -4.393,-0.94719 -6.39606,-2.32116c-3.72244,-2.55014 -5.94044,-6.94263 -5.94044,-11.75148c0,-5.24601 2.42432,-9.91953 6.49063,-12.51131c0.12895,-0.09367 0.26651,-0.17695 0.40405,-0.24981c0.29229,-0.16655 0.58459,-0.31226 0.87688,-0.45798c0.0086,-0.26021 0.0086,-0.53085 0.01719,-0.80147v-7.43184c0,-0.31226 0.0086,-0.61411 0.02579,-0.91598c-0.48143,-2.44606 -0.42985,-4.94415 0.15475,-7.2549c0,-0.13532 0,-0.31226 -0.0086,-0.54125c-0.01719,-0.22899 -0.01719,-0.45798 -0.01719,-0.67657c0,-0.79107 0.04298,-1.70704 0.16334,-3.04976c0.02579,-0.34349 0.05158,-0.61411 0.06017,-0.8327c-0.0086,-0.24981 -0.06017,-1.40518 -0.32668,-5.10028c-5.04636,-2.36279 -7.49647,-7.62961 -8.04667,-12.30314c-0.26651,-2.24829 0.02579,-4.55903 0.85109,-6.60955c2.32975,-5.8185 7.06662,-9.29502 12.67178,-9.29502c0.34388,0 0.68775,0.02082 1.02303,0.06246c0.36107,0.04163 1.47005,0.15613 3.30979,0.34349c1.58182,0.16655 2.45011,0.19777 2.91434,0.19777h0.30949c0.14614,-0.02081 0.25791,-0.03123 0.40405,-0.04164c1.59042,-0.10408 2.65643,-0.17694 3.18944,-0.21858c0.03438,0 0.07737,-0.01041 0.11176,-0.01041c0.18054,-0.21859 0.36967,-0.43716 0.5674,-0.64534c2.751,-2.92485 6.18975,-4.45494 9.94658,-4.45494c1.29812,0 2.27817,0.02081 3.00891,0.06245c0.58459,0.03123 1.05742,0.08327 1.49585,0.15613c0.10316,0.01041 0.21492,0.03123 0.32668,0.06245h3.49033c0.16334,-0.02081 0.37826,-0.05204 0.65337,-0.08327c1.07461,-0.13532 1.9257,-0.19776 2.67362,-0.19776c5.37304,0 9.69726,3.19549 11.64875,8.58722c0.74792,1.96725 1.13479,4.00736 1.13479,6.06829c0,4.84006 -2.21799,9.98199 -7.04083,12.42804c0.15475,3.7992 0.23212,7.51511 0.23212,11.13736v23.94012c0.01719,0.20818 0.05159,0.45798 0.08597,0.74943c0.0086,0.07286 0.01719,0.15613 0.02579,0.22899c0.08597,0.74943 0.15475,1.49885 0.20632,2.24828c3.91157,2.05052 6.55941,6.37015 6.91188,11.8868c0.18913,2.73749 -0.25791,6.77609 -3.30979,10.78346z" fill="#ffffff" stroke="#ffffff" stroke-width="7.5"/><path d="M399.8828,206.57852c0.04987,0.60891 -0.22782,1.31149 -0.83218,2.10465c-0.60522,0.79315 -1.66435,1.19076 -3.17568,1.19076c-0.35333,0 -0.93362,0 -1.73914,0c-0.80638,0.06037 -1.43653,0.0916 -1.89045,0.0916c-0.95769,0 -1.94117,0.09158 -2.94872,0.27583c-0.55536,0.12073 -1.73914,0.60891 -3.55481,1.46451c-1.61363,0.7921 -2.8232,1.19076 -3.6296,1.19076c-0.65594,0 -1.26117,-0.2904 -1.8148,-0.87017c-0.55536,-0.58082 -0.83132,-1.26779 -0.83132,-2.05989c0,-1.28132 1.23451,-2.28784 3.70525,-3.02062c3.57887,-1.09917 5.41861,-1.67894 5.52005,-1.7393c-0.10144,-3.90536 -0.22696,-8.39152 -0.37741,-13.45955c-0.15131,-4.76095 -0.22782,-7.01862 -0.22782,-6.77505v-5.12735c0,-0.06142 0,-0.51835 0,-1.37395c0.05072,-0.67137 0.05072,-1.15745 0,-1.46451c-0.05072,-0.54853 -0.22695,-0.8837 -0.52871,-1.00653c-0.05072,-0.06142 -0.80638,-0.09263 -2.26872,-0.09263c-2.52146,0.06246 -5.44439,0.49025 -8.77138,1.28131c-1.26117,0.36742 -3.15161,0.88682 -5.67221,1.55715v13.09212c0.04987,0.24461 0.07565,1.43536 0.07565,3.57124c0,1.71016 0.15216,2.74687 0.45392,3.11221c0.25189,0.12282 1.58783,0.24461 4.00786,0.36742c1.66349,0.06142 2.69598,0.79419 3.10003,2.19624c0.09972,0.36742 -0.01375,0.91598 -0.34043,1.64874c-0.32841,0.73173 -0.66797,1.19076 -1.0213,1.37292c-0.80638,0.36639 -1.36089,0.54853 -1.6635,0.54853c-1.10986,-0.06142 -3.85655,-0.33621 -8.24267,-0.82333h-4.9157c-0.80638,-0.06246 -1.58784,-0.35286 -2.34436,-0.87017c-0.75653,-0.51836 -1.13393,-1.1127 -1.13393,-1.78614c0,-0.9753 0.47885,-1.76844 1.43653,-2.37944c0.75653,-0.42676 1.5887,-0.64118 2.49567,-0.64118c0.35161,0 0.98348,0.01665 1.8896,0.0458c0.90783,0.03123 1.56205,0.01664 1.96611,-0.0458c-0.10144,-2.37007 -0.10144,-5.98816 0,-10.85424c0,0.06246 0,-2.46167 0,-7.5682c0,-0.18215 0.06276,-0.56207 0.18999,-1.1408c0.12551,-0.57769 0.18913,-1.01901 0.18913,-1.32191c-0.20203,-0.24357 -0.40491,-0.60788 -0.60522,-1.095c-0.10144,-0.48609 -0.10144,-0.91076 0,-1.2782c0.35248,-0.97322 0.47885,-2.49186 0.37741,-4.56008c0,-0.36431 0.03869,-0.98674 0.11433,-1.86836c0.07565,-0.88163 0.11348,-1.53634 0.11348,-1.96205c0,-0.79002 -0.12638,-2.88739 -0.37826,-6.29313v-7.57029c0,-0.36326 -0.09886,-0.94095 -0.29659,-1.73201c-1.38581,0.1832 -2.4011,0.27478 -3.04329,0.27478c-2.87135,0 -4.4549,-1.25008 -4.75063,-3.75339c0.75566,-1.89022 2.14149,-2.83846 4.15917,-2.83846c-0.05159,0 1.13393,0.12282 3.55394,0.36639c2.26872,0.24461 3.90642,0.30601 4.91569,0.18319c2.82235,-0.1832 4.08351,-0.27479 3.78004,-0.27479c2.77249,0 4.00786,1.00756 3.70611,3.02166c-0.25275,1.46451 -1.41247,2.22852 -3.47915,2.28785c-1.56291,0.06246 -3.09917,0.12282 -4.61222,0.18319c0.26479,2.13796 0.44102,4.51843 0.52956,7.14144c0,1.64771 0,3.99904 0,7.04985c0,3.29541 0,5.67589 0,7.1404c0.04987,0.06246 0.12551,0.12282 0.22695,0.1832c0.80638,0.06246 1.61277,0.09159 2.41916,0.09159c1.86466,0 4.25975,-0.18319 7.18355,-0.54853c3.9322,-0.54853 6.32471,-0.85352 7.18268,-0.91598c0.25189,-1.95268 0.37826,-4.27175 0.37826,-6.95824c0,-5.06593 -0.35333,-10.74182 -1.05827,-17.02975c0.04987,0 -0.95769,0 -3.02524,0c-1.05827,0 -2.01683,-0.2342 -2.87393,-0.70467c-0.8571,-0.47047 -1.28523,-1.42808 -1.28523,-2.87281c0,-0.62765 0.17623,-1.12935 0.52956,-1.50511c1.00755,-1.06689 2.24206,-1.60086 3.70525,-1.60086c2.72262,0 3.83076,0.0916 3.32699,0.27479h5.21744c0.20031,0 0.66711,-0.0458 1.39871,-0.1374c0.73073,-0.09159 1.29813,-0.1374 1.70132,-0.1374c1.61277,0 2.62118,0.61308 3.02523,1.83402c0.20031,0.49026 0.30261,0.94928 0.30261,1.37499c0,1.34481 -1.03335,2.14003 -3.10003,2.38465c-1.51219,0.06246 -3.02523,0.12283 -4.53656,0.1832c0.5545,7.27259 0.83217,14.27142 0.83217,20.99548v24.29713c0,0.36742 0.06447,1.07107 0.19514,2.10882c0.17194,1.58941 0.25876,3.1476 0.25876,4.67561c-0.05072,2.75102 -0.05072,4.89107 0,6.41907c0.10059,0.1832 0.20031,0.33413 0.30261,0.45694c2.46988,-0.4278 3.67946,-0.64014 3.63046,-0.64014c1.8148,0.00208 2.77164,0.88578 2.87308,2.65735z" fill="#ffffff" stroke="#ffffff" stroke-width="7.5"/><path d="M359.91854,179.57593c0.05871,3.07174 -0.06077,6.40041 -0.36258,9.98224c-0.48516,6.29065 -1.84278,10.86022 -4.07801,13.71247c-1.028,1.317 -3.47336,2.81608 -7.33815,4.49725c-1.69239,0.6585 -3.56503,0.98774 -5.61794,0.98774c-3.26117,0 -6.19169,-0.73083 -8.78847,-2.19499c-2.83987,-1.60759 -4.59098,-3.69159 -5.25537,-6.25324c-0.24104,-0.36542 -0.514,-0.87675 -0.81478,-1.53525c-0.30387,-2.19375 -0.78594,-5.48374 -1.45033,-9.87249v-10.86023c0,-1.02391 0.21116,-3.21766 0.63452,-6.58249c0.42129,-3.36233 0.69426,-5.22683 0.81581,-5.59349c2.11368,-6.80199 4.43956,-10.53098 6.97556,-11.19072c1.14646,-0.29058 2.41549,-0.439 3.80504,-0.439c4.46943,0 8.51756,1.317 12.14131,3.94974c0.24,0.14717 0.54285,0.2195 0.90542,0.2195c0.06077,-0.2195 0.12051,-1.13241 0.18232,-2.74249c0.05974,0 0.05974,-1.27834 0,-3.83875c-0.06181,-1.756 0.08138,-2.99816 0.42851,-3.73024c0.34507,-0.72958 1.0383,-1.09749 2.07454,-1.09749c0.7857,0 1.41522,0.12803 1.88836,0.38405c0.59996,0.32465 0.9485,0.85513 1.04525,1.59144c0,0.07358 0,2.77992 0,8.11775c0,4.02333 0,6.54632 0,7.56898c0,1.24466 0,1.79341 0,1.645c-0.24309,1.0975 -0.66542,1.75474 -1.26903,1.97424c-1.62955,0.6585 -2.7482,0.69716 -3.35182,0.10975c-0.30284,0 -0.63349,-0.10975 -0.9971,-0.32925c-0.30284,-1.02266 -0.9662,-2.37458 -1.99317,-4.05824c-1.39058,-1.38808 -3.20246,-2.59533 -5.43563,-3.62049c-2.23626,-1.02266 -4.13878,-1.53525 -5.70859,-1.53525c-1.9942,0 -3.59388,1.8645 -4.80214,5.59474c-1.69239,5.11957 -2.44639,11.73698 -2.2651,19.85596c0.12052,3.58433 0.21116,5.85166 0.27296,6.80075c0.30078,2.99941 0.9662,5.55857 1.99317,7.67874c0.72516,1.46416 1.84175,2.67141 3.35284,3.62049c1.50904,0.95158 2.98924,1.46291 4.43956,1.53525c7.18879,0.36666 11.38525,-3.47333 12.59557,-11.51873c0.66439,-4.31391 0.72413,-7.9344 0.18129,-10.86023c-0.12258,-0.58492 -0.06283,-1.37188 0.18129,-2.35962c0.23897,-0.9865 1.29787,-1.59012 3.17052,-1.80962c0.42232,0 0.9353,0.2382 1.54097,0.71337c0.5995,0.47891 0.90336,0.97153 0.90336,1.48286z" fill="#ffffff" stroke="#ffffff" stroke-width="7.5"/><path d="M136.20392,200.68565c-3.26052,9.03459 -12.12352,14.52601 -26.33659,16.32285c-0.64605,0.08075 -1.28201,0.13123 -1.91796,0.15141c-0.82775,1.21134 -1.90787,2.26117 -3.17977,3.07883c-3.33118,2.12994 -6.4504,3.16968 -9.52923,3.16968c-6.32926,0 -13.14306,-4.72423 -13.14306,-15.1014c0,-0.70662 0.03029,-1.62522 0.10095,-2.89713c0.03029,-0.5451 0.06057,-0.96907 0.07066,-1.28201c-0.17161,-0.78737 -0.26246,-1.58483 -0.26246,-2.3924v-4.88575c0,-0.79746 0.08075,-1.59494 0.24227,-2.3924c0.01009,-0.67634 0.04038,-1.43342 0.09086,-2.26117c-0.24227,-0.88832 -0.42396,-1.91796 -0.42396,-3.06874c0,-0.52491 0.04038,-1.04983 0.11104,-1.56465c0.38359,-2.70533 1.58483,-5.42076 3.61384,-7.59108c-0.69652,-1.94824 -1.05992,-4.00752 -1.05992,-6.11728v-5.14821c0,-2.08956 0.41387,-4.69395 2.44287,-11.17463c0.84794,-2.7861 1.1205,-3.65422 1.49399,-4.46178c1.98862,-4.46178 4.98669,-6.69267 7.16711,-7.79297c3.56336,-1.77664 7.38919,-2.68515 11.36644,-2.68515c1.83721,0 3.59365,0.1918 5.26934,0.55519c0.747,-0.50473 1.54446,-0.92869 2.3924,-1.28201c1.08012,-0.46435 2.23088,-0.78737 3.50279,-0.98926c3.17977,-0.5451 6.54124,0.13123 9.46866,1.90787c3.07883,1.87758 6.6119,5.77407 6.17785,13.78911c-0.07066,1.41323 -0.1918,3.30091 -0.3735,5.76398c-0.01009,0.06057 -0.01009,0.12114 -0.0202,0.1817c-0.16152,1.78673 -0.39369,4.45168 -0.70662,7.97467c0.08075,1.36276 0.05047,2.88703 -0.07066,4.68386c-0.05047,0.68643 -0.16152,1.37285 -0.34321,2.0391c-0.04038,0.15141 -0.08075,0.29275 -0.12114,0.42396c1.36276,1.74635 2.29146,3.4927 2.92742,5.00687c0.59557,1.20125 1.1003,2.5842 1.54446,4.26998c0.17161,0.63596 0.28264,1.28201 0.33312,1.93815c0.45425,5.66303 0.22207,9.00431 -0.82775,11.83078z" fill="#00cc07" stroke="none" stroke-width="1"/><path d="M183.41017,153.47237c-0.04,0.17 -0.07,0.34 -0.12,0.51c-0.15,0.63 -0.46,2.12 -0.77,5.03c0,0.05 0,0.09 -0.01,0.12c1.71,6.88 -1.17,11.07 -3.08,12.98c-0.12,0.13 -0.25,0.25 -0.39,0.37c-1.87,1.7 -5.14,3.73 -10.02,3.73c-2.43,0 11.55,2.96 9.57,1.97c0.05,2.73 -3.17,5.99 -3.17,11.21c1.8,0.63 -9.55,-1.35 -8.15,-0.01c2.78,2.67 4.3,6.24 4.3,10.05c0,5.66 -3.26,10.58 -8.51,12.83c-0.13,0.06 -0.27,0.12 -0.4,0.17c-1.76,0.67 -3.74,1 -6.06,1c-0.84,0 -1.74,-0.04 -2.72,-0.13c-0.6,-0.03 -1.48,-0.02 -2.52,0.01c-1.89,0.21 -4.55,0.42 -8.11,0.62c-0.07,0 -0.14,0.01 -0.22,0.01c-0.47,0.02 -0.92,0.03 -1.36,0.03c-6.37,0 -11.02,-2.02 -13.83,-5.99c-0.06,-0.08 -0.11,-0.16 -0.16,-0.24c-2.86,-4.27 -2.94,-9.67 -0.22,-14.08c0.02,-0.05 0.05,-0.09 0.08,-0.14c1.73,-2.72 4.26,-4.66 7.54,-5.8c0.04,-1.93 -7.72,3.9 -7.78,1.03c-1.63,0.68 -0.26,-7.17 -2.37,-7.17c-5.57,0 -5.67,-3.31 -7.27,-8.34c-0.33,-1.02 -0.64,-2.51 -1.36,-5.87c-0.03,-0.12 -0.05,-0.24 -0.07,-0.36l-1.48,-8.27c-0.05,-0.18 -0.12,-0.39 -0.2,-0.63c-0.77,-2.19 -1.13,-4.05 -1.13,-5.85c0,-2.23 0.65,-5.6 3.73,-8.96c1.55,-1.7 4.37,-3.9 8.91,-4.61c0.56,-0.09 1.13,-0.14 1.7,-0.14h11.06c0.25,0 0.5,0.01 0.75,0.03c4.22,0.15 8,0.14 11.24,-0.01c4.53,-0.2 9.05,-0.59 13.48,-1.16c0.5,-0.16 1.04,-0.32 1.62,-0.46c0.55,-0.14 1.11,-0.23 1.67,-0.29c4.26,-0.39 8.23,0.84 11.32,3.48c3.83,3.29 5.52,8.27 4.51,13.33z" fill="#00cc07" stroke="none" stroke-width="1"/><g stroke="none" stroke-width="1"><path d="M220.96994,199.37312c0.15463,0.89709 -0.35536,2.19223 -1.53378,3.88305c-1.17652,1.692 -2.36656,2.8668 -3.57021,3.5254c-1.20365,0.6586 -3.01071,0.99985 -5.419,1.02193c-1.939,0.00533 -3.6561,-1.00074 -5.15048,-3.01611c-1.49638,-2.01555 -2.25841,-4.17301 -2.29018,-6.47173c-0.07469,-6.48174 -0.48267,-11.16885 -1.225,-14.06042c-0.05566,-0.71066 -0.28386,-1.77488 -0.68742,-3.19492c-0.40274,-1.41796 -1.49761,-2.64912 -3.28487,-3.6905c-1.35315,-0.64864 -2.73056,-1.32954 -4.13521,-2.04296c-0.22799,-0.07837 -0.51885,-0.10408 -0.8736,-0.0772c-0.83642,0.16099 -2.56911,0.4787 -5.1941,0.95346l-0.1471,1.66451l-0.60398,6.83436c-0.01039,0.11754 -0.01559,0.67625 -0.01561,1.67613c-0.0002,1.00187 -0.01834,1.70701 -0.05435,2.11442c0.02869,1.00443 -0.0562,3.64621 -0.25856,7.924c0.39183,0.21232 0.83012,0.25105 1.31388,0.11611c1.63363,-0.50314 3.04802,-0.52472 4.24425,-0.06563c0.8507,0.37033 1.22602,1.11024 1.12805,2.21892c-0.14464,1.63662 -1.09272,2.53866 -2.84427,2.70612c-1.75172,0.16945 -4.31793,0.39944 -7.69854,0.68896c-2.73392,0.28745 -4.74342,0.37489 -6.02741,0.26141c-1.98626,-0.17553 -3.31862,-0.76411 -3.99409,-1.76546c-0.00489,-1.94398 1.09033,-3.02275 3.28817,-3.24212c1.76866,-0.02038 3.53888,-0.06974 5.31074,-0.14907c0.2588,-0.27027 0.40577,-0.58154 0.43676,-0.93217c0.05899,-1.34904 0.16413,-6.19661 0.31344,-14.54287c0.00013,-2.00076 0.07569,-3.52603 0.22734,-4.57174c-1.04679,-0.15074 -1.74031,-0.30037 -2.07956,-0.44881c-0.85079,-0.36933 -1.35759,-0.97329 -1.51741,-1.81161l0.02333,-0.26397c0.12066,-0.04756 0.2342,-0.33268 0.34035,-0.85235c0.93038,-1.21281 2.02612,-1.61591 3.2864,-1.2114c0.14654,-0.34042 0.20113,-1.27625 0.15907,-2.81091c-0.03462,-5.59477 0.03499,-10.06299 0.21373,-13.40322c-0.21358,-0.25278 -0.70536,-0.35648 -1.4747,-0.30701c-1.18913,0.13083 -1.81304,0.19315 -1.87082,0.18804c-3.1547,-0.27879 -4.60679,-1.17109 -4.35491,-2.68078c0.24041,-1.39124 1.51248,-2.13113 3.81657,-2.22366c2.08004,-0.22677 6.43017,-0.49085 13.05114,-0.78916c-0.29805,0.03289 1.76821,0.30283 6.19751,0.81273c5.10279,0.86356 8.62087,2.02878 10.55243,3.49351c2.09021,1.65744 3.40915,3.71554 3.95648,6.17828c0.16493,0.78055 0.12407,1.92439 -0.12672,3.43317c-0.19302,1.51389 -0.52253,2.57299 -0.98672,3.17948c-1.56158,2.3346 -4.47058,4.28509 -8.73007,5.8522c-0.01549,0.17532 0.00301,0.29541 0.05667,0.35838c1.36735,1.18095 2.2779,2.20308 2.73167,3.06638c1.30027,2.58751 2.0093,6.24211 2.12139,10.9603c0.19626,6.43526 0.45534,10.48981 0.77896,12.16681c0.02778,0.35583 0.38716,0.94676 1.07912,1.77288c0.69179,0.82811 1.2693,1.29075 1.73246,1.3889c1.79856,0.27741 2.9825,-0.44216 3.54684,-2.15915c-0.00299,-0.64778 0.33737,-1.50013 1.02024,-2.55912c0.88489,-0.68677 1.91065,-0.97961 3.0801,-0.87626c1.17026,0.10543 1.88274,0.69946 2.14158,1.78044zM206.16412,167.07034c0.57135,-0.47856 0.9066,-1.27313 1.00475,-2.38381c0.26321,-2.97839 -0.6003,-5.20304 -2.58846,-6.67478c-1.98933,-1.46983 -6.4949,-2.45729 -13.51488,-2.96022c-0.52495,-0.04639 -1.33448,0.11698 -2.42767,0.4912c0.09885,0.89217 0.03432,1.62232 -0.19358,2.19046c-0.13624,0.87139 -0.20851,1.6892 -0.21682,2.45344c-0.11047,1.57941 -0.22377,3.54306 -0.34254,5.8867c-0.01372,3.47227 -0.03772,5.4137 -0.07373,5.82111c0.99724,0.0299 2.48442,-0.13381 4.45831,-0.48843c0.31666,-0.26616 0.7545,-0.55172 1.31144,-0.85588c0.41771,-0.08054 1.47481,-0.04635 3.1692,0.10339c3.21339,0.28498 6.35163,-0.90839 9.41398,-3.58319z" fill="#faa83b"/><path d="M208.9855,218.74031c-3.43561,-0.30362 -8.39712,-1.83433 -12.52517,-7.40034c-0.06813,-0.09236 -0.13527,-0.18462 -0.20332,-0.27798c-1.46906,0.67429 -3.09507,1.11386 -4.83856,1.28103c-1.75063,0.16854 -4.323,0.39999 -7.7046,0.68943c-3.46526,0.36135 -6.02269,0.44655 -8.03883,0.26837c-6.78157,-0.59932 -10.34831,-3.90614 -12.14737,-6.57487c-1.21954,-1.80838 -1.87341,-3.94022 -1.87844,-6.12113c-0.01467,-6.22948 -6.19704,-5.12342 -0.58649,-7.16545c0.02245,-1.15149 -2.60387,-3.69457 -2.57689,-5.16992c-1.58504,-1.77342 1.48483,-5.60103 1.01822,-8.0456c-0.19083,-0.99868 8.07888,-5.29938 8.1684,-6.31243l0.02333,-0.26397c0.10969,-1.24116 0.42683,-2.43287 0.91965,-3.53376c0.38474,-1.09338 0.94049,-2.12245 1.65069,-3.04752c0.36872,-0.48041 0.75798,-0.93189 1.16586,-1.35563c-0.00022,-0.08836 -0.00036,-0.17772 0.00141,-0.26591c-1.71818,-0.82345 -3.45585,-2.05119 -4.88489,-3.89715c-2.16678,-2.80162 -3.03619,-6.28869 -2.4459,-9.82145c1.35828,-7.86095 8.16908,-11.01162 13.78437,-11.38073c2.41905,-0.246 6.8235,-0.5113 13.43741,-0.80923c1.03707,-0.04588 2.04842,0.05152 3.0132,0.27834c0.61612,0.08256 1.9832,0.25558 4.9358,0.59481c0.1938,0.02215 0.38807,0.05036 0.58,0.08238c7.03556,1.18997 11.91764,2.96062 15.36204,5.57298c0.06404,0.04782 0.12699,0.09655 0.18986,0.14628c4.04897,3.21191 6.76688,7.50182 7.85931,12.40703c0.00779,0.03683 0.01566,0.07266 0.02345,0.10949c0.45344,2.13922 0.45242,4.46817 -0.00414,7.31704c-0.43543,3.22318 -1.37854,5.81823 -2.87771,7.91239c-0.87437,1.27197 -1.89618,2.45159 -3.07094,3.54442c0.68277,2.67951 1.08652,5.68773 1.22314,9.07189c0.41114,0.00521 0.82494,0.02572 1.24132,0.06252c5.85717,0.51762 10.51652,4.5133 11.86989,10.18044c0.05326,0.22657 0.10055,0.45261 0.13951,0.68193c1.00333,5.79984 -2.27005,10.49892 -3.34517,12.04328c-2.1792,3.13232 -4.57409,5.38826 -7.31682,6.88863c-2.84299,1.55577 -6.30975,2.3316 -10.59598,2.37243c-0.57154,0.0037 -1.07254,-0.01849 -1.56561,-0.06206z" fill="#00cc07"/></g><path d="M172.76074,152.00698c-0.41,1.643 -0.762,3.87 -1.055,6.685c-0.119,1.408 -0.061,2.551 0.176,3.431c0.408,1.467 0.381,2.435 -0.088,2.903c-0.646,0.586 -1.525,0.879 -2.639,0.879c-1.291,0 -2.143,-0.383 -2.551,-1.151c-0.061,-2.362 -0.031,-4.578 0.088,-6.646c0.115,-2.54 0.176,-3.869 0.176,-3.987c-0.061,0 -0.148,-0.059 -0.264,-0.178c-5.455,0.237 -10.586,0.589 -15.394,1.059c-0.118,0.589 -0.118,1.528 0,2.82c0.233,1.822 0.352,2.88 0.352,3.172c-0.234,1.822 -0.352,4.524 -0.352,8.109c0.233,1.528 0.352,8.08 0.352,19.655v6.435c0,0.999 0.145,1.704 0.436,2.115h5.401c0.987,-0.117 1.785,0.118 2.396,0.704c0.609,0.587 0.914,1.29 0.914,2.11c0,1.289 -0.615,2.199 -1.847,2.728c-0.763,0.292 -2.111,0.352 -4.046,0.176c-0.938,-0.06 -2.317,-0.06 -4.135,0c-1.642,0.204 -4.28,0.409 -7.916,0.615c-3.167,0.117 -5.102,-0.323 -5.806,-1.319c-0.47,-0.703 -0.47,-1.437 0,-2.199c0.82,-1.289 2.961,-1.935 6.422,-1.935c1.231,0 1.992,-0.102 2.286,-0.307c0.293,-0.205 0.44,-0.601 0.44,-1.187c0,-0.526 0,-1.023 0,-1.492c0,-0.877 0,-2.165 0,-3.862c0.176,-2.983 0.176,-7.432 0,-13.343c-0.235,-8.485 -0.118,-15.945 0.352,-22.383c-0.059,-0.058 -0.147,-0.146 -0.266,-0.264c-2.123,0.118 -5.543,0.059 -10.26,-0.177c-0.531,0 -2.331,0.119 -5.396,0.353c0.762,5.337 1.231,9.354 1.407,12.051c0,0.352 -0.059,1.144 -0.176,2.375c-0.059,0.879 -0.792,1.319 -2.199,1.319c-0.763,0 -1.202,-0.262 -1.319,-0.785c-0.059,-0.115 -0.411,-1.687 -1.056,-4.711c-0.352,-1.977 -0.851,-4.769 -1.495,-8.375c0,-0.23 -0.206,-0.957 -0.615,-2.18c-0.35,-0.989 -0.525,-1.745 -0.525,-2.268c0,-0.406 0.277,-0.917 0.836,-1.526c0.557,-0.61 1.393,-1.004 2.507,-1.179c0.176,0 0.453,0 0.836,0c0.38,0 0.688,0 0.923,0c6.979,0 10.028,0 9.148,0c4.75,0.177 8.972,0.177 12.666,0c5.277,-0.233 10.495,-0.703 15.657,-1.407c0.352,-0.176 0.879,-0.352 1.582,-0.527c1.291,-0.117 2.346,0.176 3.168,0.88c0.82,0.702 1.113,1.641 0.879,2.814z" fill="#ffffff" stroke="none" stroke-width="1"/><path d="M125.19732,190.89728c0.29577,3.67138 0.2352,6.03753 -0.17766,7.10351c-1.71809,4.85445 -7.49013,7.902 -17.31412,9.14564c-3.31605,0.41489 -6.63008,-1.1538 -9.94612,-4.70606c0,0.53299 0.11811,2.13095 0.35634,4.7959c0.17766,1.95329 0.14738,3.55125 -0.08883,4.79388c-1.48087,0.94686 -2.66394,1.42131 -3.55226,1.42131c-1.36276,0 -2.04212,-1.33146 -2.04212,-3.99642c0,-0.47343 0.02927,-1.2275 0.08883,-2.26319c0.05855,-1.03468 0.08883,-1.76049 0.08883,-2.17537c0,-1.00642 -0.08883,-1.71607 -0.2665,-2.13095v-4.88372c0,-0.11811 0.02927,-0.25136 0.08883,-0.39974c0.05855,-0.14738 0.11811,-0.28063 0.17766,-0.39974c-0.05956,-0.82775 -0.03029,-2.10067 0.08883,-3.81774c0.11811,-1.06598 0.11811,-1.74534 0,-2.04212c-0.29678,-0.59053 -0.44315,-0.94585 -0.44315,-1.06497c0.2352,-1.65752 1.45058,-2.48628 3.64008,-2.48628c1.4203,0 2.27833,0.50372 2.57511,1.50913c0,0.94686 0.11811,2.3389 0.35533,4.17307c0.35634,2.13095 1.47986,4.26291 3.3746,6.39285c2.07139,2.42773 4.05395,3.55226 5.94971,3.3746c2.13095,-0.2352 4.2619,-0.73892 6.39285,-1.50913c2.95971,-1.06598 4.73533,-2.30861 5.32788,-3.72891c0.41286,-1.06598 0.62081,-2.1895 0.62081,-3.3746c0,-3.60979 -1.33146,-6.30402 -3.99541,-8.07966c-1.1851,-0.7692 -3.3746,-1.39102 -6.57153,-1.86547c-1.83518,-0.2352 -2.96072,-0.35533 -3.37358,-0.35533c-2.84161,0.05956 -5.49142,-0.85803 -7.94742,-2.75277c-2.457,-1.89373 -3.6845,-4.08525 -3.6845,-6.57153v-5.14921c0,-1.12352 0.6511,-3.75818 1.9543,-7.902c0.59053,-1.9543 0.91658,-2.98898 0.97715,-3.1081c0.53198,-1.24263 1.21235,-2.07139 2.04111,-2.48628c2.01183,-1.00541 4.14278,-1.50913 6.39285,-1.50913c4.38001,0 7.60623,1.77562 9.67863,5.32687c0.17766,0.17766 0.47343,0.44416 0.88832,0.79949c0.05855,-0.82775 0.17766,-2.10067 0.35533,-3.81774c-0.05956,-0.7692 -0.11912,-1.50913 -0.17766,-2.21978c0,-0.82775 0.41286,-1.39001 1.24263,-1.68679c0.23621,-0.11811 0.56226,-0.20694 0.97715,-0.2665c0.59154,-0.11811 1.22851,0.03029 1.90988,0.44315c0.67936,0.41489 0.961,1.65853 0.8429,3.72891c-0.05956,1.30219 -0.17766,3.13737 -0.35533,5.50453c-0.17766,1.9543 -0.44315,4.94328 -0.79949,8.96897c0.11811,0.94686 0.11811,2.25007 0,3.90657c-0.29678,1.12453 -1.1851,1.68679 -2.66394,1.68679c-0.77021,0 -1.50913,-0.20694 -2.21978,-0.62081c-0.35533,-1.12352 -0.53198,-1.59897 -0.53198,-1.42131c0.11709,-1.59796 -0.20795,-3.72891 -0.97715,-6.39285c-0.65211,-1.36074 -1.55355,-3.29889 -2.70837,-5.81545c-1.15481,-2.51555 -2.67909,-3.86318 -4.57282,-4.04084c-2.36817,-0.17766 -3.90657,0.62182 -4.61723,2.39745c-0.23621,0.77021 -0.56328,1.89575 -0.97614,3.3746c-0.71065,2.19051 -1.15481,4.29219 -1.33248,6.30402c-0.05956,0.65211 -0.11912,0.9186 -0.17766,0.79949c0.17766,1.1851 0.3846,2.36817 0.62182,3.55226c0.29577,1.47986 1.02156,2.6054 2.17537,3.37358c1.15481,0.77021 3.35845,1.24263 6.61494,1.4203c7.99083,0.47546 12.9331,3.2575 14.82784,8.34715c0.29476,0.47444 0.59053,1.27292 0.88731,2.39643z" fill="#ffffff" stroke="none" stroke-width="1"/><path d="M278.85774,202.25698c0.85,3.81 0.01,6.71 -1.05,8.65c-2.71,5.17 -7.69,8.25 -13.39,8.25c-1.09,0 -2.23,-0.11 -3.46,-0.35h-4.47c-1.17,0 -3.37,-0.07 -8.85,-0.68c-3.25,-0.37 -6,-0.55 -8.16,-0.55h-5.44c-0.14,0.01 -0.63,0.04 -1.8,0.16c-1.83,0.19 -3.22,0.28 -4.39,0.28c-3.4,0 -6.44,-0.7 -9.03,-2.07c-0.17,-0.09 -0.33,-0.19 -0.5,-0.28c-1.74,-1.05 -5.79,-4.18 -5.79,-10.76c0,-3.55 1.32,-6.83 3.71,-9.24c1.16,-1.18 2.5,-2.14 3.97,-2.87c-3.31,-3.62 -4.31,-8.75 -2.52,-13.6c0.7,-1.85 -3.02,-1.97 -1.7,-3.34c-6,-2.02 -4.14,-8.59 -4.33,-13.49c-0.51,-3.77 0.96,-7.6 4.01,-10.05c3.02,-2.43 6.66,-3.85 10.52,-4.13c0.25,-0.01 0.51,-0.02 0.77,-0.02h3.07c6.61,-0.12 17.83,-1.75 33.34,-4.85c2,-0.45 4.07,-0.37 6.27,0.26c1.02,0.29 3.33,0.96 5.4,2.99c0.44,0.43 0.83,0.89 1.19,1.38c1.38,1.9 2.33,4.04 2.83,6.36c0.21,1.01 0.28,2.03 0.21,3.05c-0.12,1.89 -0.05,3.98 0.21,6.21c0.33,2.7 -0.36,5.43 -1.92,7.65c-2.39,3.38 -6.04,5.52 -10.24,6.04c0.01,0.18 0.02,0.37 0.02,0.55v0.85c3.09,0.29 5.93,1.6 8.1,3.76c3.57,3.59 3.6,8.03 3.44,10.32c0.18,1.2 0.24,1.98 0.24,2.75c0,0.93 -0.09,1.95 -0.29,3.33c-0.02,0.15 -0.04,0.27 -0.06,0.39v2.67c0.03,0.13 0.06,0.25 0.09,0.38z" fill="#00cc07" stroke="none" stroke-width="1"/><path d="M220.96994,199.37312c0.15463,0.89709 -0.35536,2.19223 -1.53378,3.88305c-1.17652,1.692 -2.36656,2.8668 -3.57021,3.5254c-1.20365,0.6586 -3.01071,0.99985 -5.419,1.02193c-1.939,0.00533 -3.6561,-1.00074 -5.15048,-3.01611c-1.49638,-2.01555 -2.25841,-4.17301 -2.29018,-6.47173c-0.07469,-6.48174 -0.48267,-11.16885 -1.225,-14.06042c-0.05566,-0.71066 -0.28386,-1.77488 -0.68742,-3.19492c-0.40274,-1.41796 -1.49761,-2.64912 -3.28487,-3.6905c-1.35315,-0.64864 -2.73056,-1.32954 -4.13521,-2.04296c-0.22799,-0.07837 -0.51885,-0.10408 -0.8736,-0.0772c-0.83642,0.16099 -2.56911,0.4787 -5.1941,0.95346l-0.1471,1.66451l-0.60398,6.83436c-0.01039,0.11754 -0.01559,0.67625 -0.01561,1.67613c-0.0002,1.00187 -0.01834,1.70701 -0.05435,2.11442c0.02869,1.00443 -0.0562,3.64621 -0.25856,7.924c0.39183,0.21232 0.83012,0.25105 1.31388,0.11611c1.63363,-0.50314 3.04802,-0.52472 4.24425,-0.06563c0.8507,0.37033 1.22602,1.11024 1.12805,2.21892c-0.14464,1.63662 -1.09272,2.53866 -2.84427,2.70612c-1.75172,0.16945 -4.31793,0.39944 -7.69854,0.68896c-2.73392,0.28745 -4.74342,0.37489 -6.02741,0.26141c-1.98626,-0.17553 -3.31862,-0.76411 -3.99409,-1.76546c-0.00489,-1.94398 1.09033,-3.02275 3.28817,-3.24212c1.76866,-0.02038 3.53888,-0.06974 5.31074,-0.14907c0.2588,-0.27027 0.40577,-0.58154 0.43676,-0.93217c0.05899,-1.34904 0.16413,-6.19661 0.31344,-14.54287c0.00013,-2.00076 0.07569,-3.52603 0.22734,-4.57174c-1.04679,-0.15074 -1.74031,-0.30037 -2.07956,-0.44881c-0.85079,-0.36933 -1.35759,-0.97329 -1.51741,-1.81161l0.02333,-0.26397c0.12066,-0.04756 0.2342,-0.33268 0.34035,-0.85235c0.93038,-1.21281 2.02612,-1.61591 3.2864,-1.2114c0.14654,-0.34042 0.20113,-1.27625 0.15907,-2.81091c-0.03462,-5.59477 0.03499,-10.06299 0.21373,-13.40322c-0.21358,-0.25278 -0.70536,-0.35648 -1.4747,-0.30701c-1.18913,0.13083 -1.81304,0.19315 -1.87082,0.18804c-3.1547,-0.27879 -4.60679,-1.17109 -4.35491,-2.68078c0.24041,-1.39124 1.51248,-2.13113 3.81657,-2.22366c2.08004,-0.22677 6.43017,-0.49085 13.05114,-0.78916c-0.29805,0.03289 1.76821,0.30283 6.19751,0.81273c5.10279,0.86356 8.62087,2.02878 10.55243,3.49351c2.09021,1.65744 3.40915,3.71554 3.95648,6.17828c0.16493,0.78055 0.12407,1.92439 -0.12672,3.43317c-0.19302,1.51389 -0.52253,2.57299 -0.98672,3.17948c-1.56158,2.3346 -4.47058,4.28509 -8.73007,5.8522c-0.01549,0.17532 0.00301,0.29541 0.05667,0.35838c1.36735,1.18095 2.2779,2.20308 2.73167,3.06638c1.30027,2.58751 2.0093,6.24211 2.12139,10.9603c0.19626,6.43526 0.45534,10.48981 0.77896,12.16681c0.02778,0.35583 0.38716,0.94676 1.07912,1.77288c0.69179,0.82811 1.2693,1.29075 1.73246,1.3889c1.79856,0.27741 2.9825,-0.44216 3.54684,-2.15915c-0.00299,-0.64778 0.33737,-1.50013 1.02024,-2.55912c0.88489,-0.68677 1.91065,-0.97961 3.0801,-0.87626c1.17026,0.10543 1.88274,0.69946 2.14158,1.78044zM206.16412,167.07034c0.57135,-0.47856 0.9066,-1.27313 1.00475,-2.38381c0.26321,-2.97839 -0.6003,-5.20304 -2.58846,-6.67478c-1.98933,-1.46983 -6.4949,-2.45729 -13.51488,-2.96022c-0.52495,-0.04639 -1.33448,0.11698 -2.42767,0.4912c0.09885,0.89217 0.03432,1.62232 -0.19358,2.19046c-0.13624,0.87139 -0.20851,1.6892 -0.21682,2.45344c-0.11047,1.57941 -0.22377,3.54306 -0.34254,5.8867c-0.01372,3.47227 -0.03772,5.4137 -0.07373,5.82111c0.99724,0.0299 2.48442,-0.13381 4.45831,-0.48843c0.31666,-0.26616 0.7545,-0.55172 1.31144,-0.85588c0.41771,-0.08054 1.47481,-0.04635 3.1692,0.10339c3.21339,0.28498 6.35163,-0.90839 9.41398,-3.58319z" fill="#ffffff" stroke="none" stroke-width="1"/><path d="M328.35774,202.25698c0.85,3.81 0.01,6.71 -1.05,8.65c-2.71,5.17 -7.69,8.25 -13.39,8.25c-1.09,0 -2.23,-0.11 -3.46,-0.35h-4.47c-1.17,0 -3.37,-0.07 -8.85,-0.68c-3.25,-0.37 -6,-0.55 -8.16,-0.55h-5.44c-0.14,0.01 -0.63,0.04 -1.8,0.16c-1.83,0.19 -3.22,0.28 -4.39,0.28c-3.4,0 -6.44,-0.7 -9.03,-2.07c-0.17,-0.09 -0.33,-0.19 -0.5,-0.28c-1.74,-1.05 -5.79,-4.18 -5.79,-10.76c0,-3.55 1.32,-6.83 3.71,-9.24c1.16,-1.18 2.5,-2.14 3.97,-2.87c-3.31,-3.62 -4.31,-8.75 -2.52,-13.6c0.7,-1.85 -3.02,-1.97 -1.7,-3.34c-6,-2.02 -4.14,-8.59 -4.33,-13.49c-0.51,-3.77 0.96,-7.6 4.01,-10.05c3.02,-2.43 6.66,-3.85 10.52,-4.13c0.25,-0.01 0.51,-0.02 0.77,-0.02h3.07c6.61,-0.12 17.83,-1.75 33.34,-4.85c2,-0.45 4.07,-0.37 6.27,0.26c1.02,0.29 3.33,0.96 5.4,2.99c0.44,0.43 0.83,0.89 1.19,1.38c1.38,1.9 2.33,4.04 2.83,6.36c0.21,1.01 0.28,2.03 0.21,3.05c-0.12,1.89 -0.05,3.98 0.21,6.21c0.33,2.7 -0.36,5.43 -1.92,7.65c-2.39,3.38 -6.04,5.52 -10.24,6.04c0.01,0.18 0.02,0.37 0.02,0.55v0.85c3.09,0.29 5.93,1.6 8.1,3.76c3.57,3.59 3.6,8.03 3.44,10.32c0.18,1.2 0.24,1.98 0.24,2.75c0,0.93 -0.09,1.95 -0.29,3.33c-0.02,0.15 -0.04,0.27 -0.06,0.39v2.67c0.03,0.13 0.06,0.25 0.09,0.38z" fill="#00cc07" stroke="none" stroke-width="1"/><path d="M268.56074,164.88098c-0.703,0.998 -1.789,1.496 -3.254,1.496c-0.763,0 -1.438,-0.146 -2.023,-0.44c-0.059,-1.583 -0.206,-3.928 -0.439,-7.037c-4.985,0.939 -12.931,2.317 -23.837,4.135c-0.528,0.059 -0.968,0.206 -1.32,0.439c0.293,5.396 0.44,10.674 0.44,15.833c0.594,0.118 2.467,-0.146 5.618,-0.792c1.546,-0.233 3.926,-0.791 7.136,-1.671c0.058,-0.938 -0.059,-2.507 -0.352,-4.706c-0.294,-2.199 -0.411,-3.826 -0.352,-4.882c0,-1.113 0.761,-1.671 2.287,-1.671c1.759,0 2.696,0.733 2.814,2.199c0.233,2.229 0.585,5.571 1.056,10.027v13.634c0.176,0.235 0.292,0.411 0.352,0.527c-0.176,0.704 -0.675,1.306 -1.495,1.804c-0.822,0.499 -1.643,0.747 -2.463,0.747c-1.056,0 -1.76,-0.468 -2.111,-1.407c0.117,-0.585 0.205,-1.495 0.264,-2.727v-8.092c-3.721,0.118 -7.913,0.879 -12.578,2.286c0,1.056 -0.03,3.754 -0.088,8.093c-0.06,3.577 -0.06,6.012 0,7.301c0,0.294 0.233,0.822 0.704,1.583c1.231,0.06 3.136,0.176 5.717,0.353c2.991,0.294 5.981,0.586 8.972,0.879c3.576,0.411 6.567,0.559 8.973,0.44c0.058,-0.762 0.204,-1.965 0.439,-3.606v-5.19c-0.352,-0.585 -0.528,-1.144 -0.528,-1.671c0,-0.88 0.366,-1.627 1.1,-2.243c0.732,-0.615 1.54,-0.924 2.419,-0.924c0.704,0 1.261,0.207 1.672,0.616c0.233,0.235 0.292,0.998 0.176,2.287c-0.06,0.294 -0.03,0.807 0.088,1.539c0.117,0.734 0.176,1.218 0.176,1.451c0,0.353 -0.059,0.924 -0.176,1.716c-0.118,0.791 -0.176,1.218 -0.176,1.275v5.277c0,0.06 0.116,0.352 0.352,0.88c0.117,0.527 0.117,0.879 0,1.056c-0.823,1.643 -2.058,2.463 -3.701,2.463c-0.412,0 -0.911,-0.058 -1.499,-0.176c-0.589,-0.117 -0.94,-0.176 -1.058,-0.176h-5.376c-1.41,0 -3.951,-0.205 -7.624,-0.616c-3.672,-0.409 -6.802,-0.615 -9.386,-0.615h-5.552c-0.471,0 -1.41,0.074 -2.82,0.22c-1.41,0.146 -2.498,0.22 -3.262,0.22c-1.586,0 -2.88,-0.264 -3.877,-0.792c-0.294,-0.176 -0.441,-0.615 -0.441,-1.319c0,-0.645 0.175,-1.144 0.523,-1.495c0.755,-0.762 1.801,-1.201 3.138,-1.319c0.871,0 1.771,0 2.702,0c0.638,0.118 1.509,0.059 2.614,-0.176c0.349,-0.177 0.553,-0.586 0.61,-1.231c0.058,-0.41 0.058,-1.025 0,-1.848c-0.058,-0.938 -0.087,-1.465 -0.087,-1.583c0,-6.099 -0.028,-9.588 -0.087,-10.468c-1.037,-0.116 -2.479,-0.497 -4.323,-1.144c-0.813,-0.645 -1.016,-1.524 -0.604,-2.639c0.352,-0.938 1.144,-1.612 2.375,-2.023c0.879,-0.292 1.759,-0.557 2.639,-0.791c0.176,-0.645 0.204,-1.437 0.088,-2.375c-0.118,-0.82 -0.206,-1.612 -0.264,-2.375c-0.118,-2.521 -0.323,-6.391 -0.616,-11.611c-0.235,0 -1.026,0.074 -2.375,0.221c-1.35,0.146 -2.405,0.22 -3.166,0.22c-2.698,0 -4.047,-0.807 -4.047,-2.422c0,-0.229 0.029,-0.489 0.088,-0.778c-0.059,-0.115 -0.116,-0.173 -0.176,-0.173c1.289,-1.036 2.756,-1.613 4.398,-1.729c1.056,0 2.11,0 3.166,0c7.33,-0.117 19.205,-1.817 35.624,-5.102c0.176,-0.059 0.469,-0.029 0.88,0.088c0.409,0.118 0.645,0.206 0.703,0.264c0.469,0.646 0.792,1.378 0.968,2.199c-0.177,2.581 -0.089,5.335 0.262,8.267z" fill="#ffffff" stroke="none" stroke-width="1"/><path d="M360.36874,188.28197c-0.7,7.55 -2.97,13.28 -6.92,17.45c-2.3,2.43 -5.71,4.35 -11.39,6.39c-0.11,0.04 -0.23,0.08 -0.35,0.12c-2.72,0.87 -5.69,1.32 -8.82,1.32c-4.77,0 -9.2,-0.94 -13.17,-2.79c-5.87,-2.74 -8.79,-6.57 -10.24,-9.8c-0.21,-0.35 -0.43,-0.71 -0.64,-1.1c-0.6,-1.09 -1.02,-2.27 -1.22,-3.5c-0.29,-1.72 -0.75,-4.31 -1.38,-7.75c-0.12,-0.66 -0.18,-1.32 -0.18,-1.99v-8.7c0,-1.08 0.09,-2.66 0.74,-6.94c0.63,-4.19 0.9,-5.49 1.4,-6.77c1.31,-3.49 5.23,-13.75 14.73,-15.78c3.12,-0.66 6.63,-0.75 9.95,-0.39c2.35,-3.77 6.55,-6.02 11.32,-6.02c8.28,0 12.86,5.46 13.72,10.86c0.09,0.57 0.13,1.15 0.13,1.73v13.89c0,0.01 0,0.02 0,0.02c0,0.01 0,0.01 0,0.02c0,0 0,0 0,0.01c0,0.91 -0.12,1.78 -0.32,2.63c1.93,2.19 3,4.89 3.05,7.78c0.06,2.9 -0.08,6.04 -0.41,9.31z" fill="#00cc07" stroke="none" stroke-width="1"/><path d="M318.06074,164.88098c-0.703,0.998 -1.789,1.496 -3.254,1.496c-0.763,0 -1.438,-0.146 -2.023,-0.44c-0.059,-1.583 -0.206,-3.928 -0.439,-7.037c-4.985,0.939 -12.931,2.317 -23.837,4.135c-0.528,0.059 -0.968,0.206 -1.32,0.439c0.293,5.396 0.44,10.674 0.44,15.833c0.594,0.118 2.467,-0.146 5.618,-0.792c1.546,-0.233 3.926,-0.791 7.136,-1.671c0.058,-0.938 -0.059,-2.507 -0.352,-4.706c-0.294,-2.199 -0.411,-3.826 -0.352,-4.882c0,-1.113 0.761,-1.671 2.287,-1.671c1.759,0 2.696,0.733 2.814,2.199c0.233,2.229 0.585,5.571 1.056,10.027v13.634c0.176,0.235 0.292,0.411 0.352,0.527c-0.176,0.704 -0.675,1.306 -1.495,1.804c-0.822,0.499 -1.643,0.747 -2.463,0.747c-1.056,0 -1.76,-0.468 -2.111,-1.407c0.117,-0.585 0.205,-1.495 0.264,-2.727v-8.092c-3.721,0.118 -7.913,0.879 -12.578,2.286c0,1.056 -0.03,3.754 -0.088,8.093c-0.06,3.577 -0.06,6.012 0,7.301c0,0.294 0.233,0.822 0.704,1.583c1.231,0.06 3.136,0.176 5.717,0.353c2.991,0.294 5.981,0.586 8.972,0.879c3.576,0.411 6.567,0.559 8.973,0.44c0.058,-0.762 0.204,-1.965 0.439,-3.606v-5.19c-0.352,-0.585 -0.528,-1.144 -0.528,-1.671c0,-0.88 0.366,-1.627 1.1,-2.243c0.732,-0.615 1.54,-0.924 2.419,-0.924c0.704,0 1.261,0.207 1.672,0.616c0.233,0.235 0.292,0.998 0.176,2.287c-0.06,0.294 -0.03,0.807 0.088,1.539c0.117,0.734 0.176,1.218 0.176,1.451c0,0.353 -0.059,0.924 -0.176,1.716c-0.118,0.791 -0.176,1.218 -0.176,1.275v5.277c0,0.06 0.116,0.352 0.352,0.88c0.117,0.527 0.117,0.879 0,1.056c-0.823,1.643 -2.058,2.463 -3.701,2.463c-0.412,0 -0.911,-0.058 -1.499,-0.176c-0.589,-0.117 -0.94,-0.176 -1.058,-0.176h-5.376c-1.41,0 -3.951,-0.205 -7.624,-0.616c-3.672,-0.409 -6.802,-0.615 -9.386,-0.615h-5.552c-0.471,0 -1.41,0.074 -2.82,0.22c-1.41,0.146 -2.498,0.22 -3.262,0.22c-1.586,0 -2.88,-0.264 -3.877,-0.792c-0.294,-0.176 -0.441,-0.615 -0.441,-1.319c0,-0.645 0.175,-1.144 0.523,-1.495c0.755,-0.762 1.801,-1.201 3.138,-1.319c0.871,0 1.771,0 2.702,0c0.638,0.118 1.509,0.059 2.614,-0.176c0.349,-0.177 0.553,-0.586 0.61,-1.231c0.058,-0.41 0.058,-1.025 0,-1.848c-0.058,-0.938 -0.087,-1.465 -0.087,-1.583c0,-6.099 -0.028,-9.588 -0.087,-10.468c-1.037,-0.116 -2.479,-0.497 -4.323,-1.144c-0.813,-0.645 -1.016,-1.524 -0.604,-2.639c0.352,-0.938 1.144,-1.612 2.375,-2.023c0.879,-0.292 1.759,-0.557 2.639,-0.791c0.176,-0.645 0.204,-1.437 0.088,-2.375c-0.118,-0.82 -0.206,-1.612 -0.264,-2.375c-0.118,-2.521 -0.323,-6.391 -0.616,-11.611c-0.235,0 -1.026,0.074 -2.375,0.221c-1.35,0.146 -2.405,0.22 -3.166,0.22c-2.698,0 -4.047,-0.807 -4.047,-2.422c0,-0.229 0.029,-0.489 0.088,-0.778c-0.059,-0.115 -0.116,-0.173 -0.176,-0.173c1.289,-1.036 2.756,-1.613 4.398,-1.729c1.056,0 2.11,0 3.166,0c7.33,-0.117 19.205,-1.817 35.624,-5.102c0.176,-0.059 0.469,-0.029 0.88,0.088c0.409,0.118 0.645,0.206 0.703,0.264c0.469,0.646 0.792,1.378 0.968,2.199c-0.177,2.581 -0.089,5.335 0.262,8.267z" fill="#ffffff" stroke="none" stroke-width="1"/><path d="M403.01798,209.8797c-1.65251,1.79439 -4.69044,3.91427 -9.83157,3.91427h-1.41047c-0.86798,0.05008 -1.54401,0.07511 -2.11153,0.07511c-0.34219,0 -0.70106,0.02504 -1.06829,0.05842c-0.28376,0.10015 -0.85129,0.30046 -1.86116,0.69272c-2.74583,1.10167 -4.87406,1.60243 -6.91048,1.60243c-2.85433,0 -5.54174,-1.01821 -7.76177,-2.93779c-1.31032,-1.12671 -2.32018,-2.47876 -2.99621,-3.97269c-1.05994,-0.08346 -2.40364,-0.20865 -4.12292,-0.35888h-4.34826c-0.2003,0 -0.39226,-0.00835 -0.58422,-0.02504c-2.16996,-0.13354 -4.2648,-0.75948 -6.20941,-1.86116c-3.61381,-2.04477 -5.76708,-5.56677 -5.76708,-9.42262c0,-4.20638 2.35357,-7.95373 6.30122,-10.03188c0.12519,-0.07511 0.25873,-0.14188 0.39226,-0.2003c0.28376,-0.13354 0.56753,-0.25038 0.85129,-0.36722c0.00835,-0.20865 0.00835,-0.42565 0.01669,-0.64264v-5.95903c0,-0.25038 0.00835,-0.49241 0.02504,-0.73445c-0.46738,-1.96131 -0.4173,-3.96434 0.15023,-5.81715c0,-0.1085 0,-0.25038 -0.00835,-0.43399c-0.01669,-0.18361 -0.01669,-0.36722 -0.01669,-0.54249c0,-0.6343 0.04173,-1.36874 0.15857,-2.44537c0.02504,-0.27542 0.05008,-0.49241 0.05842,-0.66768c-0.00835,-0.2003 -0.05842,-1.12671 -0.31715,-4.08953c-4.89909,-1.89454 -7.2777,-6.11761 -7.81184,-9.86496c-0.25873,-1.80273 0.02504,-3.65554 0.82625,-5.2997c2.26176,-4.66541 6.8604,-7.45297 12.30198,-7.45297c0.33384,0 0.66768,0.01669 0.99317,0.05008c0.35053,0.03338 1.42716,0.12519 3.2132,0.27542c1.53566,0.13354 2.37861,0.15857 2.82929,0.15857h0.30046c0.14188,-0.01669 0.25038,-0.02504 0.39226,-0.03338c1.54401,-0.08346 2.57891,-0.14188 3.09636,-0.17527c0.03338,0 0.07511,-0.00835 0.1085,-0.00835c0.17527,-0.17527 0.35888,-0.35053 0.55084,-0.51745c2.67072,-2.34522 6.00911,-3.57208 9.65631,-3.57208c1.26024,0 2.21169,0.01669 2.9211,0.05008c0.56753,0.02504 1.02656,0.06677 1.4522,0.12519c0.10015,0.00835 0.20865,0.02504 0.31715,0.05008h3.38847c0.15857,-0.01669 0.36722,-0.04173 0.6343,-0.06677c1.04325,-0.1085 1.8695,-0.15857 2.5956,-0.15857c5.21624,0 9.41427,2.56222 11.30881,6.88544c0.7261,1.57739 1.10167,3.2132 1.10167,4.86571c0,3.88088 -2.15326,8.0038 -6.83536,9.96511c0.15023,3.04629 0.22534,6.0258 0.22534,8.93021v19.19577c0.01669,0.16692 0.05008,0.36722 0.08346,0.60091c0.00835,0.05842 0.01669,0.12519 0.02504,0.18361c0.08346,0.60091 0.15023,1.20182 0.2003,1.80273c3.79742,1.64416 6.36799,5.10774 6.71017,9.53112c0.18361,2.19499 -0.25038,5.43324 -3.2132,8.64644z" fill="#00cc07" stroke="none" stroke-width="1"/><path d="M394.57573,201.31131c0.04841,0.48824 -0.22117,1.05159 -0.80789,1.68756c-0.58756,0.63596 -1.61578,0.95478 -3.08301,0.95478c-0.34302,0 -0.90637,0 -1.68839,0c-0.78285,0.04841 -1.39461,0.07344 -1.83528,0.07344c-0.92974,0 -1.88452,0.07344 -2.86267,0.22117c-0.53915,0.09681 -1.68839,0.48824 -3.45107,1.17428c-1.56654,0.63513 -2.74082,0.95478 -3.52368,0.95478c-0.6368,0 -1.22436,-0.23285 -1.76184,-0.69772c-0.53915,-0.46571 -0.80706,-1.01654 -0.80706,-1.65167c0,-1.02739 1.19848,-1.83445 3.59712,-2.42201c3.47443,-0.88134 5.26048,-1.34621 5.35896,-1.39461c-0.09848,-3.13141 -0.22033,-6.72853 -0.36639,-10.7922c-0.14689,-3.81745 -0.22117,-5.6277 -0.22117,-5.4324v-4.11123c0,-0.04924 0,-0.41563 0,-1.10167c0.04924,-0.53832 0.04924,-0.92807 0,-1.17428c-0.04924,-0.43983 -0.22033,-0.70857 -0.51328,-0.80706c-0.04924,-0.04924 -0.78285,-0.07428 -2.20251,-0.07428c-2.44788,0.05008 -5.28551,0.3931 -8.51541,1.02739c-1.22436,0.29461 -3.05964,0.71108 -5.50668,1.24856v10.49758c0.04841,0.19613 0.07344,1.15091 0.07344,2.86351c0,1.37125 0.14772,2.20251 0.44067,2.49545c0.24454,0.09848 1.5415,0.19613 3.8909,0.29461c1.61495,0.04924 2.6173,0.6368 3.00956,1.761c0.09681,0.29461 -0.01335,0.73445 -0.3305,1.322c-0.31882,0.58672 -0.64848,0.95478 -0.9915,1.10084c-0.78285,0.29378 -1.32117,0.43983 -1.61495,0.43983c-1.07747,-0.04924 -3.74401,-0.26958 -8.00213,-0.66017h-4.77224c-0.78285,-0.05008 -1.5415,-0.28293 -2.27595,-0.69772c-0.73445,-0.41563 -1.10084,-0.89219 -1.10084,-1.43217c0,-0.78202 0.46487,-1.41798 1.39461,-1.90789c0.73445,-0.34219 1.54234,-0.51411 2.42284,-0.51411c0.34135,0 0.95478,0.01335 1.83445,0.03672c0.88134,0.02504 1.51647,0.01335 1.90873,-0.03672c-0.09848,-1.90038 -0.09848,-4.80145 0,-8.7032c0,0.05008 0,-1.97383 0,-6.06837c0,-0.14605 0.06093,-0.45068 0.18445,-0.91472c0.12185,-0.4632 0.18361,-0.81707 0.18361,-1.05994c-0.19613,-0.1953 -0.3931,-0.48741 -0.58756,-0.878c-0.09848,-0.38976 -0.09848,-0.73027 0,-1.02489c0.34219,-0.78035 0.46487,-1.99803 0.36639,-3.65638c0,-0.29211 0.03756,-0.7912 0.111,-1.4981c0.07344,-0.70691 0.11017,-1.23187 0.11017,-1.57322c0,-0.63346 -0.12269,-2.31518 -0.36722,-5.04598v-6.07004c0,-0.29127 -0.09598,-0.75448 -0.28794,-1.38877c-1.34537,0.14689 -2.33103,0.22033 -2.95448,0.22033c-2.78756,0 -4.32489,-1.00235 -4.61199,-3.00956c0.73361,-1.51563 2.07899,-2.27595 4.03779,-2.27595c-0.05008,0 1.10084,0.09848 3.45023,0.29378c2.20251,0.19613 3.79242,0.24537 4.77224,0.14689c2.73999,-0.14689 3.96434,-0.22033 3.66973,-0.22033c2.69158,0 3.8909,0.80789 3.59795,2.42284c-0.24537,1.17428 -1.37125,1.78688 -3.37762,1.83445c-1.5173,0.05008 -3.00873,0.09848 -4.47762,0.14689c0.25706,1.71427 0.42815,3.62299 0.51411,5.72618c0,1.32117 0,3.20653 0,5.65274c0,2.64234 0,4.55107 0,5.72535c0.04841,0.05008 0.12185,0.09848 0.22033,0.14689c0.78285,0.05008 1.56571,0.07344 2.34856,0.07344c1.81024,0 4.13544,-0.14689 6.97391,-0.43983c3.81745,-0.43983 6.14014,-0.68437 6.97307,-0.73445c0.24454,-1.56571 0.36722,-3.42519 0.36722,-5.57929c0,-4.06199 -0.34302,-8.61306 -1.02739,-13.65487c0.04841,0 -0.92974,0 -2.93695,0c-1.02739,0 -1.95797,-0.18778 -2.79006,-0.56502c-0.83209,-0.37724 -1.24773,-1.14507 -1.24773,-2.30349c0,-0.50326 0.17109,-0.90554 0.51411,-1.20683c0.97815,-0.85546 2.17663,-1.28361 3.59712,-1.28361c2.64317,0 3.71897,0.07344 3.2299,0.22033h5.06518c0.19446,0 0.64765,-0.03672 1.35789,-0.11017c0.70941,-0.07344 1.26024,-0.11017 1.65167,-0.11017c1.56571,0 2.54469,0.49158 2.93695,1.47056c0.19446,0.3931 0.29378,0.76115 0.29378,1.1025c0,1.0783 -1.00319,1.71593 -3.00956,1.91207c-1.46806,0.05008 -2.93695,0.09848 -4.40418,0.14689c0.53832,5.83134 0.80789,11.44318 0.80789,16.83469v19.48204c0,0.29461 0.06259,0.8588 0.18945,1.6909c0.16692,1.27443 0.25121,2.52383 0.25121,3.74902c-0.04924,2.20584 -0.04924,3.92178 0,5.14697c0.09765,0.14689 0.19446,0.26791 0.29378,0.36639c2.3978,-0.34302 3.57208,-0.51328 3.52451,-0.51328c1.76184,0.00167 2.69075,0.71024 2.78923,2.13073z" fill="#ffffff" stroke="none" stroke-width="1"/><path d="M355.77774,179.65997c0.057,2.463 -0.059,5.132 -0.352,8.004c-0.471,5.044 -1.789,8.708 -3.959,10.995c-0.998,1.056 -3.372,2.258 -7.124,3.606c-1.643,0.528 -3.461,0.792 -5.454,0.792c-3.166,0 -6.011,-0.586 -8.532,-1.76c-2.757,-1.289 -4.457,-2.96 -5.102,-5.014c-0.234,-0.293 -0.499,-0.703 -0.791,-1.231c-0.295,-1.759 -0.763,-4.397 -1.408,-7.916v-8.708c0,-0.821 0.205,-2.58 0.616,-5.278c0.409,-2.696 0.674,-4.191 0.792,-4.485c2.052,-5.454 4.31,-8.444 6.772,-8.973c1.113,-0.233 2.345,-0.352 3.694,-0.352c4.339,0 8.269,1.056 11.787,3.167c0.233,0.118 0.527,0.176 0.879,0.176c0.059,-0.176 0.117,-0.908 0.177,-2.199c0.058,0 0.058,-1.025 0,-3.078c-0.06,-1.408 0.079,-2.404 0.416,-2.991c0.335,-0.585 1.008,-0.88 2.014,-0.88c0.76277,0 1.37392,0.10265 1.83326,0.30794c0.58245,0.26031 0.92082,0.68567 1.01475,1.27606c0,0.059 0,2.229 0,6.509c0,3.226 0,5.249 0,6.069c0,0.998 0,1.438 0,1.319c-0.236,0.88 -0.646,1.407 -1.232,1.583c-1.582,0.528 -2.668,0.559 -3.254,0.088c-0.294,0 -0.615,-0.088 -0.968,-0.264c-0.294,-0.82 -0.938,-1.904 -1.935,-3.254c-1.35,-1.113 -3.109,-2.081 -5.277,-2.903c-2.171,-0.82 -4.018,-1.231 -5.542,-1.231c-1.936,0 -3.489,1.495 -4.662,4.486c-1.643,4.105 -2.375,9.411 -2.199,15.921c0.117,2.874 0.205,4.692 0.265,5.453c0.292,2.405 0.938,4.457 1.935,6.157c0.704,1.174 1.788,2.142 3.255,2.903c1.465,0.763 2.902,1.173 4.31,1.231c6.979,0.294 11.053,-2.785 12.228,-9.236c0.645,-3.459 0.703,-6.362 0.176,-8.708c-0.119,-0.469 -0.061,-1.1 0.176,-1.892c0.232,-0.791 1.26,-1.275 3.078,-1.451c0.41,0 0.908,0.191 1.496,0.572c0.582,0.384 0.877,0.779 0.877,1.189z" fill="#ffffff" stroke="none" stroke-width="1"/></g></g></svg>